<?xml version="1.0" standalone="no"?>
<!DOCTYPE svg PUBLIC "-//W3C//DTD SVG 20010904//EN"
 "http://www.w3.org/TR/2001/REC-SVG-20010904/DTD/svg10.dtd">
<svg version="1.0" xmlns="http://www.w3.org/2000/svg"
 width="1000.000000pt" height="1000.000000pt" viewBox="0 0 1000.000000 1000.000000"
 preserveAspectRatio="xMidYMid meet">
<metadata>
Created by potrace 1.14, written by Peter Selinger 2001-2017
</metadata>
<g transform="translate(0.000000,1000.000000) scale(0.100000,-0.100000)"
fill="#000000" stroke="none">
<path d="M0 5000 l0 -5000 1591 0 c922 0 1588 4 1585 9 -3 5 0 14 8 20 11 9
15 7 19 -9 5 -20 10 -20 962 -20 699 0 954 3 949 11 -3 6 0 15 7 20 11 7 10
11 -6 24 -11 9 -15 14 -10 11 6 -2 17 -1 25 5 12 7 12 9 -4 9 -13 0 -17 5 -14
18 3 10 2 41 -2 70 -6 50 1 77 14 50 3 -7 4 3 1 23 -4 26 0 40 13 55 15 15 17
25 10 52 -10 37 -2 112 13 112 5 0 9 9 9 20 0 11 -6 20 -14 20 -10 0 -14 13
-13 50 1 39 5 50 18 50 19 0 20 30 2 45 -7 6 -15 30 -18 55 -8 68 -16 100 -25
100 -13 0 -18 38 -6 50 8 8 7 14 -4 21 -13 9 -12 10 2 5 23 -7 33 11 18 29 -7
9 -10 28 -7 45 4 16 2 32 -3 35 -6 4 -7 18 -4 32 5 17 3 24 -4 19 -6 -4 -8 2
-5 14 5 18 15 24 36 21 4 0 7 8 7 19 0 11 4 20 8 20 14 0 51 -75 58 -118 4
-23 11 -45 15 -48 5 -3 9 -15 9 -27 0 -12 9 -39 20 -60 11 -20 20 -48 20 -63
0 -14 4 -34 10 -44 5 -10 11 -39 12 -64 2 -25 6 -46 9 -46 3 0 14 -37 23 -83
10 -45 24 -103 31 -128 11 -40 11 -51 -1 -74 -16 -32 -17 -38 -5 -31 11 7 21
-29 17 -63 -2 -14 -1 -20 1 -13 6 17 20 15 27 -5 4 -9 2 -20 -5 -23 -8 -5 -9
-24 -4 -60 5 -40 4 -51 -5 -45 -8 5 -11 1 -8 -11 2 -11 10 -18 16 -16 7 1 12
-10 12 -26 0 -62 0 -62 275 -59 278 2 257 -4 242 68 -4 23 -2 26 14 22 10 -3
19 -9 19 -14 0 -5 -7 -6 -15 -3 -11 5 -13 2 -9 -10 3 -9 14 -15 23 -14 11 2
16 -4 15 -20 0 -12 4 -21 10 -19 6 2 10 15 9 28 -5 62 -7 66 -29 63 -15 -1
-24 4 -27 18 -4 15 -11 18 -26 13 -12 -4 -21 -2 -21 4 0 6 6 12 13 13 6 0 17
2 22 3 6 2 18 3 28 4 9 0 17 5 17 11 0 5 -6 7 -13 4 -8 -3 -20 2 -27 11 -7 8
-21 15 -31 15 -21 0 -26 16 -6 23 9 4 9 6 0 6 -7 1 -13 6 -13 11 0 7 6 7 19 0
31 -16 36 -12 11 10 -16 14 -21 27 -18 45 5 25 -5 34 -17 15 -8 -13 -35 -13
-35 0 0 5 8 7 18 3 12 -4 11 0 -6 17 -13 12 -20 25 -14 29 12 8 9 48 -6 63 -7
7 -12 16 -12 21 0 17 -32 34 -56 29 -16 -3 -24 -11 -24 -24 0 -26 -43 -21 -49
7 -3 16 -1 17 11 8 11 -10 16 -8 26 8 9 14 19 18 32 14 12 -4 20 -2 20 5 0 12
46 3 70 -13 12 -9 13 -9 3 3 -7 8 -13 22 -13 32 0 10 -4 18 -10 18 -5 0 -10
-5 -10 -12 0 -6 -9 -2 -20 10 -24 25 -52 30 -44 7 9 -23 -11 -18 -45 11 -17
14 -35 23 -41 19 -5 -3 -10 1 -10 9 0 9 8 16 18 16 15 1 15 2 -2 15 -19 14
-19 15 -2 15 11 0 25 -8 32 -17 12 -17 13 -17 31 2 10 11 24 20 31 21 6 1 18
2 26 3 14 1 28 48 16 53 -4 2 -10 17 -13 35 -5 26 -3 33 14 38 24 8 21 41 -4
37 -17 -3 -22 16 -19 63 2 16 0 17 -7 5 -6 -8 -13 -11 -18 -7 -4 5 3 17 17 28
21 16 23 20 10 29 -8 5 -19 10 -24 10 -4 0 -6 9 -3 21 3 12 0 22 -9 26 -8 3
-14 12 -14 20 0 8 -7 27 -15 42 -13 25 -13 30 0 41 8 7 23 9 32 5 10 -3 3 7
-15 23 -23 21 -30 34 -26 47 6 14 3 16 -13 11 -17 -5 -19 -2 -19 26 0 18 -3
44 -8 57 -6 16 -5 21 3 17 6 -4 11 -2 11 3 0 6 -7 11 -15 11 -8 0 -15 5 -15
10 0 6 7 10 15 10 8 0 15 3 15 8 -1 10 -67 42 -90 42 -23 0 -35 -16 -18 -23
10 -4 10 -6 1 -6 -26 -2 -60 50 -54 83 1 5 -7 15 -17 22 -11 7 -23 29 -26 49
-6 31 -9 34 -26 25 -12 -7 -21 -7 -25 0 -9 15 4 30 20 23 18 -6 20 18 3 35 -9
9 -7 13 6 18 11 4 28 -5 52 -30 20 -21 38 -36 40 -34 6 7 -8 48 -17 48 -5 0
-4 12 1 26 9 22 6 30 -20 54 -19 18 -26 30 -18 32 10 4 10 10 1 31 -13 29 -35
33 -78 17 -22 -8 -30 -6 -53 17 -16 16 -22 28 -15 30 7 3 9 11 6 19 -3 8 0 14
6 14 6 0 11 -4 11 -10 0 -5 8 -10 18 -10 10 0 28 -7 40 -16 27 -18 29 -6 6 42
-17 35 -34 45 -34 19 0 -21 -11 -19 -74 11 -69 33 -81 46 -66 73 14 27 30 26
64 0 20 -16 30 -19 39 -10 6 6 19 11 29 11 27 0 22 19 -12 38 -16 9 -32 28
-35 42 -4 14 -13 32 -21 41 -12 13 -13 21 -3 43 13 29 28 33 48 14 11 -11 12
-9 8 7 -6 20 -10 75 -8 108 1 10 9 17 21 17 11 0 20 5 20 10 0 6 -5 10 -11 10
-24 0 -1 47 38 75 23 16 45 40 49 52 5 18 11 22 30 17 19 -5 24 -2 24 14 0 12
-4 24 -10 27 -5 3 -10 13 -10 22 0 13 3 13 15 3 11 -10 19 -10 27 -2 7 7 4 19
-11 41 -14 20 -20 38 -16 51 3 11 2 20 -3 20 -16 0 -34 -28 -26 -41 5 -9 2
-10 -11 -5 -10 4 -28 0 -41 -9 -22 -14 -24 -14 -24 0 0 9 -7 26 -16 40 -12 18
-13 28 -4 45 11 20 5 44 -9 36 -10 -7 -23 4 -49 42 -18 25 -19 32 -7 32 31 0
14 19 -22 25 -21 4 -45 9 -53 12 -8 3 -28 5 -43 4 -25 -2 -27 0 -21 23 5 20 2
27 -12 33 -11 4 -23 12 -29 19 -5 7 -25 16 -43 21 -34 9 -41 30 -7 25 48 -7
60 -6 65 3 3 6 -17 17 -45 26 -30 9 -51 22 -53 32 -2 9 1 17 6 17 5 0 7 14 3
33 -5 22 -13 33 -28 35 -17 3 -20 -1 -16 -22 6 -28 -8 -34 -26 -12 -9 10 -9
16 -1 21 7 4 1 14 -15 27 -15 11 -24 26 -21 33 2 7 -4 21 -14 30 -10 9 -22 30
-25 46 -8 37 -30 59 -60 59 -19 0 -55 35 -55 55 0 11 92 4 123 -9 34 -14 227
-196 227 -214 0 -9 22 -22 37 -22 3 0 3 9 0 20 -3 13 0 20 9 20 17 0 17 1 4
34 -6 17 -6 27 1 32 6 3 9 17 6 30 -2 14 -1 27 4 29 4 3 5 27 3 54 -5 55 9 77
54 87 15 3 56 17 92 30 36 13 68 24 72 24 4 0 46 18 95 41 48 22 97 44 108 49
89 39 113 51 133 69 12 10 22 25 22 31 0 7 8 10 19 7 11 -3 22 1 25 9 3 8 0
11 -10 7 -10 -4 -12 0 -8 11 3 9 9 16 13 16 4 0 18 10 31 23 14 12 28 21 33
19 5 -1 6 2 2 8 -4 6 -2 16 3 23 10 12 12 18 12 37 0 5 6 7 13 4 7 -2 21 2 32
10 16 12 17 15 4 16 -9 0 -22 11 -29 25 -9 18 -22 25 -42 25 -15 0 -28 4 -28
10 0 5 7 6 17 3 11 -4 14 -3 9 5 -4 7 -1 12 9 12 9 0 13 -4 10 -10 -3 -5 -1
-10 4 -10 6 0 14 -1 17 -2 4 -2 12 16 19 39 11 36 10 44 -4 59 -15 16 -15 16
4 10 19 -6 19 -5 -1 12 -11 9 -19 23 -17 29 2 6 -1 14 -6 18 -16 9 -13 25 4
25 8 0 19 9 25 21 11 19 10 20 -9 9 -17 -9 -21 -8 -21 4 0 20 12 26 38 19 13
-3 22 -13 22 -24 0 -22 29 -26 48 -7 6 6 15 9 18 5 9 -9 -22 -38 -31 -29 -4 4
-2 -4 5 -17 l12 -24 14 33 c24 55 13 75 -26 50 -9 -6 -19 -5 -29 3 -7 7 -25
17 -40 23 -22 9 -23 11 -8 17 11 4 16 3 12 -3 -4 -6 12 -10 39 -10 36 0 44 3
40 15 -4 8 -2 15 2 15 5 0 9 13 10 30 1 16 -3 27 -7 24 -5 -3 -9 -14 -9 -24 0
-20 -25 -50 -42 -50 -6 0 -3 9 7 20 17 18 17 20 2 14 -19 -7 -24 11 -4 20 6 4
3 5 -9 3 -18 -4 -19 -1 -10 28 6 18 15 31 21 29 5 -2 11 7 11 21 1 16 -3 24
-10 22 -6 -3 -10 -9 -9 -15 2 -6 -6 -16 -17 -22 -14 -8 -20 -8 -20 1 0 7 -13
9 -41 4 -31 -5 -40 -4 -34 5 5 9 2 10 -14 5 -12 -4 -21 -2 -21 4 0 14 26 14
51 1 15 -9 21 -7 25 5 4 9 15 15 27 13 15 -2 21 3 23 22 3 21 2 22 -7 8 -5
-10 -21 -18 -34 -18 -20 0 -25 5 -25 25 0 14 5 25 11 25 5 0 7 -4 4 -10 -3 -5
-1 -10 5 -10 6 0 8 -4 5 -10 -3 -5 0 -7 9 -4 33 13 23 52 -14 49 -15 -1 -30
13 -30 28 0 4 9 7 20 7 15 0 20 7 20 28 -1 23 -2 24 -11 10 -5 -10 -20 -23
-32 -30 -20 -10 -21 -9 -9 5 11 13 10 16 -6 21 -11 4 -19 14 -18 24 1 11 -6
16 -18 15 -12 -1 -15 2 -8 9 6 6 9 16 8 22 -2 6 -1 8 1 3 6 -9 23 1 23 14 0 5
-9 9 -20 9 -13 0 -20 7 -20 20 0 14 5 18 18 14 14 -5 14 -3 -3 11 -12 9 -21
11 -23 5 -2 -5 -10 -10 -18 -10 -9 0 -12 5 -9 10 4 6 1 18 -6 26 -10 13 -10
17 0 24 8 4 11 16 7 28 -7 20 -4 21 36 17 24 -2 45 -5 48 -6 3 -1 10 -3 15 -4
6 -1 17 -5 27 -9 9 -4 38 -5 65 -2 26 2 51 5 55 5 4 1 15 17 24 37 12 25 20
32 27 25 16 -16 27 -13 27 5 0 13 -7 15 -35 10 -22 -4 -35 -3 -35 4 0 5 6 10
14 10 7 0 16 8 20 18 3 9 11 25 18 36 10 15 10 20 1 23 -7 3 -13 14 -14 26 0
20 -1 20 -8 4 -6 -17 -8 -16 -19 7 -6 14 -18 26 -27 26 -8 0 -15 3 -16 8 -3
26 -9 46 -18 55 -7 7 -11 7 -11 1 0 -5 -13 -11 -30 -12 -21 -2 -28 2 -24 11 6
17 -34 59 -48 51 -6 -4 -8 -3 -5 3 4 6 -2 18 -12 27 -13 11 -21 14 -26 7 -10
-17 -23 -13 -31 11 -6 19 -7 19 -16 5 -8 -15 -12 -14 -33 9 -13 14 -28 23 -34
20 -13 -9 -19 3 -25 53 -4 42 -21 65 -38 55 -4 -3 -8 3 -8 12 0 10 -3 15 -6
11 -4 -3 -24 3 -46 14 -43 22 -59 19 -38 -6 8 -10 9 -15 1 -15 -6 0 -12 3 -12
8 -6 33 -5 52 3 52 5 0 3 6 -4 14 -7 8 -15 14 -18 14 -18 -1 -21 4 -12 15 9
10 4 22 -19 50 -16 19 -38 39 -49 42 -10 3 -27 23 -37 45 -17 37 -54 66 -67
53 -13 -13 -5 -23 18 -23 17 0 26 -7 30 -26 10 -38 1 -40 -28 -9 -15 16 -26
25 -26 21 0 -18 -27 22 -32 47 -4 21 -3 25 8 16 7 -6 10 -18 8 -27 -3 -9 4 -5
16 11 23 29 46 37 36 12 -4 -11 3 -19 21 -26 19 -7 29 -7 31 0 2 6 8 11 13 11
6 0 8 -4 5 -9 -9 -14 4 -41 19 -41 11 0 11 5 0 27 -11 21 -11 29 -2 35 6 4 8
10 4 14 -3 4 -14 1 -22 -6 -14 -12 -20 -9 -41 16 -14 16 -29 39 -34 52 -13 30
-56 49 -79 35 -20 -12 -27 -9 -56 26 l-20 24 24 -8 c23 -7 24 -6 18 30 -6 34
-4 37 14 32 20 -5 20 -5 3 14 -19 22 -29 25 -18 7 6 -9 3 -9 -9 0 -9 8 -20 11
-25 8 -4 -3 -7 15 -6 40 2 37 0 45 -11 40 -8 -3 -15 -4 -15 -3 0 1 4 17 9 34
8 28 7 33 -10 38 -11 4 -17 11 -13 16 3 5 10 7 15 4 5 -4 9 3 9 13 0 11 10 26
23 35 l22 15 -29 7 c-23 6 -32 4 -43 -11 -7 -10 -11 -26 -8 -35 3 -10 1 -21
-6 -24 -8 -6 -8 -10 1 -15 8 -5 10 -15 5 -26 -5 -11 -7 -23 -6 -27 1 -5 -3 -6
-9 -2 -5 3 -10 1 -10 -6 0 -10 -3 -10 -12 -1 -9 9 -7 17 8 33 17 20 17 22 2
16 -12 -4 -21 0 -28 13 -7 14 -7 20 0 20 5 0 9 4 8 9 -2 5 1 9 5 9 14 1 71 86
72 108 1 11 5 26 9 32 8 13 -20 72 -34 72 -18 0 -10 18 10 23 26 7 25 17 -5
49 -31 33 -31 37 -2 31 21 -4 22 -4 3 11 -11 9 -25 16 -31 16 -7 0 -20 9 -30
20 -18 19 -17 20 3 20 12 0 22 -5 22 -11 0 -6 7 -8 17 -5 9 4 20 1 24 -6 14
-22 19 -2 6 25 -6 15 -17 25 -24 23 -6 -3 -17 2 -23 10 -7 8 -9 14 -4 14 5 0
4 4 -1 8 -21 15 -45 61 -39 76 4 11 -2 19 -20 25 -31 12 -110 90 -101 99 4 4
17 -5 30 -20 13 -16 27 -23 30 -18 7 12 -34 70 -50 70 -10 0 -35 61 -35 84 0
4 16 5 35 2 36 -6 40 -1 28 29 -5 15 -7 15 -17 -4 -12 -21 -12 -21 -48 11 -19
18 -51 47 -70 64 -19 16 -33 35 -31 41 4 11 -20 22 -55 27 -8 2 -21 11 -28 21
-8 11 -14 13 -14 6 0 -7 -4 -10 -10 -6 -6 4 -6 15 0 31 12 32 12 34 -1 34 -5
0 -7 -5 -4 -11 5 -7 -8 -8 -41 -3 -27 4 -56 7 -64 7 -8 0 -23 6 -32 14 -9 8
-22 12 -29 7 -8 -4 -10 -3 -5 4 5 8 -2 12 -18 12 -29 0 -34 -17 -11 -34 12 -9
9 -11 -18 -10 -42 1 -57 10 -57 33 0 30 -24 43 -53 30 -18 -8 -30 -8 -46 0
-15 8 -27 9 -39 2 -16 -10 -16 -10 0 -11 10 0 22 -9 28 -19 9 -19 9 -19 -20
-4 -30 14 -39 17 -109 28 -28 4 -32 2 -27 -12 6 -15 4 -15 -14 2 -19 18 -20
18 -21 -1 -1 -10 -1 -22 0 -26 2 -14 -17 -8 -23 7 -3 8 -1 15 4 15 6 0 10 4
10 10 0 5 -6 9 -12 7 -8 -1 -12 7 -11 18 1 19 1 19 -11 3 -7 -10 -19 -18 -26
-18 -7 0 -10 -7 -6 -16 3 -9 6 -19 6 -22 0 -4 5 0 10 8 9 13 10 13 10 0 0 -8
-5 -22 -10 -30 -9 -13 -11 -13 -19 0 -5 8 -7 18 -5 22 3 4 -5 8 -17 8 -21 0
-21 -1 -4 -26 16 -25 16 -26 -2 -22 -13 2 -18 12 -18 35 0 30 -1 31 -18 16 -9
-9 -20 -13 -24 -10 -10 11 -34 -30 -27 -47 3 -8 13 -13 22 -10 14 5 14 3 -2
-10 -16 -13 -21 -13 -41 0 -28 18 -52 9 -71 -27 -8 -16 -19 -29 -24 -29 -6 0
-10 -7 -10 -15 0 -8 -4 -15 -10 -15 -5 0 -10 6 -10 14 0 19 -30 44 -30 25 -1
-11 -4 -10 -13 2 -7 10 -19 14 -30 10 -17 -6 -16 -8 8 -19 14 -7 32 -12 40
-12 23 0 18 -18 -10 -36 -20 -13 -28 -14 -40 -4 -8 6 -19 9 -24 5 -17 -10 22
-41 47 -37 13 3 22 -1 22 -8 0 -7 -7 -10 -15 -6 -8 3 -22 3 -30 0 -20 -8 -19
-34 0 -34 9 0 18 -6 21 -14 7 -19 40 -13 36 8 -2 9 1 24 6 33 8 13 9 9 8 -16
-2 -44 -28 -62 -80 -56 -23 2 -32 2 -22 -1 15 -5 16 -8 5 -16 -10 -6 -3 -8 22
-4 28 5 38 3 43 -9 3 -8 1 -15 -4 -15 -6 0 -10 5 -10 11 0 5 -4 7 -10 4 -16
-10 -11 -35 8 -36 15 0 14 -1 -3 -8 -19 -8 -19 -8 0 -19 13 -7 15 -11 6 -12
-8 0 -23 -7 -33 -16 -16 -15 -16 -18 -2 -28 13 -10 13 -12 -5 -12 -11 0 -19 5
-18 11 1 5 -4 9 -12 7 -7 -1 -19 2 -27 9 -8 6 -21 8 -31 4 -31 -14 -63 -16
-63 -5 0 6 4 9 9 5 5 -3 12 -1 16 5 4 6 -5 10 -19 10 -19 0 -26 5 -26 20 0 11
-4 20 -10 20 -5 0 -10 5 -10 10 0 6 8 10 18 10 16 1 16 1 0 11 -10 5 -18 14
-18 19 0 5 8 11 18 14 9 2 1 4 -18 3 -22 -1 -34 -7 -33 -14 2 -7 -2 -13 -8
-13 -5 0 -7 -5 -4 -10 4 -6 10 -8 15 -5 4 3 10 -2 14 -10 8 -22 -13 -29 -33
-11 -16 14 -18 14 -34 -4 -15 -18 -15 -20 3 -30 11 -6 20 -17 20 -25 0 -8 4
-15 9 -15 16 0 0 -38 -19 -43 -14 -4 -17 1 -16 26 0 16 -5 32 -12 34 -8 3 -10
-1 -5 -14 6 -16 5 -16 -10 -4 -15 12 -17 10 -18 -15 -1 -16 -1 -33 0 -38 1 -5
-6 -17 -16 -28 -10 -11 -13 -22 -8 -26 6 -4 10 -18 11 -32 1 -14 5 -34 9 -44
6 -13 5 -17 -2 -13 -13 8 -23 -37 -12 -55 4 -7 3 -18 -2 -25 -8 -8 -5 -36 6
-90 9 -43 21 -96 25 -118 5 -22 11 -103 15 -180 7 -145 12 -159 68 -217 24
-25 74 -113 86 -153 7 -22 15 -47 18 -55 4 -8 7 -18 7 -22 1 -3 4 -10 9 -14 4
-4 7 -14 7 -22 0 -8 6 -28 14 -45 31 -73 76 -197 85 -239 6 -24 24 -77 42
-118 85 -203 88 -218 77 -355 -1 -11 3 -38 9 -60 49 -175 57 -284 56 -697 -1
-280 -7 -318 -53 -318 -34 0 -49 -17 -57 -67 -3 -21 -22 -69 -42 -106 -20 -37
-47 -90 -61 -117 -14 -26 -32 -57 -41 -67 -29 -34 -75 -118 -89 -163 -20 -63
-50 -130 -58 -130 -4 0 -13 9 -20 20 -7 12 -8 20 -2 20 6 0 8 10 5 23 -3 12
-2 42 4 66 8 37 6 50 -11 82 -11 22 -24 39 -29 39 -5 0 -9 9 -9 19 0 11 -4 23
-10 26 -5 3 -10 13 -10 22 0 26 -60 113 -79 114 -10 0 -11 2 -4 6 10 4 10 7 0
17 -6 7 -16 14 -22 15 -5 1 -14 9 -18 17 -4 8 -13 14 -19 14 -6 0 -19 7 -28
15 -10 9 -28 18 -40 20 -30 6 -77 55 -91 94 -6 17 -15 31 -19 31 -4 0 -11 16
-15 36 -3 20 -12 43 -20 50 -30 30 -56 140 -58 245 -1 57 -6 107 -11 111 -6 4
-6 15 0 30 5 13 7 44 4 71 -3 26 -3 47 1 47 6 0 22 79 24 116 0 6 5 18 12 25
6 8 14 37 18 64 4 28 13 53 18 57 6 4 12 39 14 78 1 40 7 78 14 86 6 7 7 19 3
26 -11 17 -17 95 -10 124 4 13 13 24 21 24 7 0 16 9 20 19 4 12 12 18 21 14
11 -4 14 4 14 34 0 34 -7 47 -45 85 -25 25 -45 43 -45 39 0 -3 -9 13 -21 37
-12 23 -25 42 -29 42 -8 0 -23 33 -25 52 0 3 -3 9 -7 13 -4 4 -5 12 -2 19 2 7
-2 31 -11 55 -8 24 -15 56 -15 71 0 16 -4 30 -9 32 -11 4 15 166 30 184 5 6 7
18 3 27 -3 8 -1 18 5 22 6 3 11 20 11 36 0 16 6 40 14 52 8 12 16 36 17 52 2
17 7 35 12 42 4 6 4 14 -2 17 -6 4 -6 18 -1 38 5 17 7 35 4 39 -3 5 -2 14 2
20 3 6 6 64 6 130 0 67 4 116 9 113 5 -3 9 0 9 5 0 6 -4 11 -9 11 -6 0 -3 12
5 28 7 15 14 37 14 49 0 12 5 23 10 25 6 2 11 27 11 57 1 45 7 60 33 90 43 49
56 76 56 110 0 16 7 37 17 46 10 10 17 35 18 64 1 26 5 52 8 58 4 7 3 14 -2
17 -4 3 -5 25 -1 48 6 29 5 45 -3 50 -9 6 -9 8 1 8 6 0 12 11 12 24 0 34 20
88 41 112 11 11 26 55 34 100 9 43 20 99 25 124 5 25 12 60 16 78 3 17 12 32
20 32 8 0 14 5 14 11 0 5 -5 7 -12 3 -8 -5 -9 0 -5 17 4 13 7 33 7 44 0 11 14
36 32 55 29 32 32 42 38 125 6 75 4 96 -12 131 -17 40 -17 44 0 90 9 27 19 51
22 54 10 10 7 40 -4 40 -14 0 -39 52 -27 59 4 3 14 24 21 46 7 22 17 45 22 52
6 7 4 13 -4 15 -10 4 -10 8 1 21 7 9 11 27 8 39 -4 12 -3 27 2 32 15 20 20 56
8 56 -7 0 -4 7 7 15 15 12 17 19 8 44 -8 23 -8 29 2 25 8 -3 17 3 21 13 6 15
9 11 16 -17 4 -22 3 -40 -3 -48 -8 -9 -8 -20 1 -38 13 -30 14 -45 1 -24 -6 9
-10 10 -10 3 0 -6 6 -18 13 -25 39 -39 41 -70 14 -193 -7 -33 -11 -68 -9 -77
4 -19 32 -25 32 -7 0 5 4 8 9 5 5 -4 21 8 35 25 16 19 32 29 41 25 20 -7 31
-36 18 -45 -5 -3 -13 -23 -16 -43 -3 -21 -15 -47 -27 -60 -11 -12 -18 -28 -15
-36 3 -7 -1 -25 -9 -40 -8 -15 -14 -44 -14 -66 0 -21 -5 -43 -11 -49 -6 -6
-11 -14 -11 -18 0 -14 33 -19 47 -8 11 10 19 7 41 -14 16 -15 32 -27 37 -27 5
0 17 -7 27 -17 21 -19 36 -10 18 12 -9 11 -10 34 -4 87 4 40 7 79 5 86 -3 17
14 15 29 -3 7 -8 19 -15 26 -15 10 0 11 -6 3 -27 -7 -18 -6 -30 1 -37 12 -12
14 -109 1 -102 -8 5 -27 -96 -23 -117 4 -15 -28 -66 -54 -86 -29 -23 -64 -27
-81 -10 -7 7 -59 12 -132 14 -106 2 -123 0 -137 -17 -16 -17 -16 -18 -1 -18
10 0 17 -5 17 -11 0 -5 13 -24 29 -41 16 -18 32 -48 36 -67 4 -20 11 -44 16
-53 10 -19 44 -24 53 -9 3 4 29 11 58 15 28 4 56 10 61 13 5 3 28 7 51 8 22 1
61 8 86 15 25 7 53 12 63 12 9 0 17 3 17 9 0 5 7 9 15 9 9 0 27 11 40 24 14
14 31 29 39 33 7 4 29 20 47 36 76 62 234 148 279 152 9 1 31 7 50 13 19 6 44
12 55 12 11 0 52 4 90 8 39 4 93 7 120 5 28 -1 60 -3 72 -3 12 0 25 -5 28 -11
5 -7 15 -5 30 5 21 14 25 14 36 0 7 -9 23 -14 36 -11 15 3 23 -1 23 -9 0 -8 5
-14 11 -14 5 0 7 5 4 10 -8 13 11 13 38 -2 20 -10 21 -10 8 5 -12 15 -11 17
12 17 14 0 37 4 51 10 14 5 26 6 26 2 0 -13 113 -13 122 1 6 9 12 9 28 -1 17
-10 20 -10 20 3 0 9 9 15 23 15 12 0 29 4 37 10 9 5 19 5 26 -1 9 -7 18 -3 32
12 11 11 25 18 30 15 6 -3 23 4 39 17 15 13 44 32 63 43 45 25 158 139 189
192 21 36 28 41 50 35 24 -6 25 -5 11 12 -14 16 -13 17 8 11 16 -5 24 -3 28 8
3 9 11 13 16 10 16 -10 58 18 58 38 0 12 4 16 12 12 6 -4 16 -1 22 7 6 8 23
20 39 28 26 14 37 41 16 41 -13 0 9 23 38 38 27 15 80 16 88 2 3 -5 -3 -10
-14 -10 -12 0 -21 -5 -21 -11 0 -7 10 -9 26 -6 18 3 24 1 20 -9 -3 -7 -1 -16
5 -20 6 -3 8 -13 5 -21 -3 -8 -3 -20 1 -26 4 -7 8 -14 9 -17 3 -15 19 -47 30
-60 7 -8 12 -17 12 -20 -1 -5 29 -104 40 -130 3 -8 7 -22 7 -30 1 -8 3 -21 4
-27 0 -7 11 -13 24 -13 l22 0 -25 -20 c-20 -16 -22 -20 -7 -20 10 0 17 -7 16
-17 0 -12 -2 -14 -6 -5 -9 24 -32 -21 -26 -52 5 -23 10 -27 29 -23 13 2 29 -1
34 -8 11 -13 50 -9 50 5 0 4 -12 11 -26 14 -14 4 -24 12 -22 18 7 19 28 21 28
4 0 -9 7 -16 15 -16 8 0 15 9 15 20 0 11 6 20 14 20 7 0 16 14 20 30 3 17 10
30 16 30 14 0 12 -16 -6 -51 -17 -34 -13 -59 11 -59 9 0 14 4 11 8 -2 4 -1 14
3 21 7 11 13 9 30 -8 11 -11 28 -21 36 -21 8 0 15 -4 15 -10 0 -5 -7 -10 -15
-10 -8 0 -15 -4 -15 -9 0 -5 8 -7 19 -4 10 3 22 0 25 -6 4 -6 12 -11 17 -11 6
0 8 4 5 9 -4 5 -2 20 3 33 7 17 10 18 10 6 1 -28 21 -21 21 7 0 14 -4 25 -10
25 -5 0 -10 5 -10 10 0 6 11 10 24 10 31 0 38 -28 14 -54 -20 -22 -24 -66 -7
-66 7 0 17 7 24 17 8 11 19 14 31 9 13 -5 15 -9 6 -15 -9 -5 -5 -11 13 -19 27
-13 34 -32 10 -32 -8 0 -15 -5 -15 -11 0 -6 -9 -8 -20 -4 -24 7 -27 -10 -4
-19 22 -9 62 3 68 21 5 13 8 12 22 -2 9 -9 24 -13 34 -10 10 3 21 1 25 -5 3
-5 0 -10 -7 -10 -7 0 -21 -11 -30 -24 -16 -22 -16 -24 3 -45 12 -13 15 -21 7
-21 -7 0 -8 -3 -2 -9 5 -6 37 -12 70 -14 34 -2 67 -7 73 -11 6 -4 14 0 17 8
11 28 23 17 26 -21 2 -21 8 -38 13 -38 6 0 16 -4 23 -8 7 -5 12 -3 12 7 0 8 5
18 12 22 16 10 80 6 92 -6 14 -14 26 -12 26 5 0 19 31 35 68 35 42 0 48 -13
12 -25 l-32 -11 22 -24 c21 -25 21 -25 17 -2 -4 16 -1 22 12 22 14 0 17 -7 14
-32 -4 -32 -3 -32 12 -13 8 11 13 25 11 32 -3 7 1 13 9 13 8 0 15 -4 15 -9 0
-14 37 -23 61 -16 14 5 18 12 14 23 -5 13 -3 14 5 6 6 -6 10 -27 8 -45 -3 -31
-6 -34 -33 -32 -25 2 -27 0 -12 -8 10 -6 25 -8 33 -5 8 3 14 1 14 -5 0 -6 6
-9 12 -6 7 2 12 15 10 28 -2 14 2 36 7 49 9 24 10 23 12 -10 1 -19 1 -44 0
-55 -1 -18 0 -18 11 -3 12 15 16 15 57 -1 39 -16 41 -19 22 -24 -26 -6 -19
-29 7 -26 23 3 53 -11 47 -21 -3 -4 2 -10 10 -14 8 -3 15 -12 15 -21 0 -9 9
-15 25 -15 14 0 25 5 25 11 0 5 5 7 11 4 16 -10 -21 -34 -56 -36 -25 -1 -22
-3 15 -10 25 -5 50 -16 56 -24 6 -8 20 -15 31 -15 11 0 26 -7 33 -15 7 -8 19
-15 26 -15 8 0 13 -6 12 -12 -2 -9 12 -14 38 -16 33 -2 44 -8 53 -28 6 -14 9
-30 6 -35 -4 -5 -2 -9 4 -9 5 0 13 5 16 10 10 16 19 12 30 -12 6 -15 21 -24
38 -26 22 -3 27 -7 22 -22 -5 -15 -2 -17 17 -13 18 4 20 2 8 -6 -12 -8 -12
-11 4 -17 21 -8 66 -51 66 -63 0 -5 12 -11 28 -14 32 -7 68 -71 56 -101 -5
-14 -3 -17 7 -14 8 2 15 14 17 26 2 12 8 22 14 22 6 0 8 -8 6 -18 -6 -22 27
-48 55 -43 9 1 17 -3 17 -8 0 -6 -7 -11 -15 -11 -18 0 -30 -24 -20 -40 4 -7
13 -7 27 1 19 10 20 9 16 -21 -4 -25 -1 -34 13 -37 10 -3 20 -11 23 -19 3 -7
11 -12 18 -10 7 1 10 1 6 -1 -5 -3 -8 -11 -8 -19 0 -8 -5 -14 -12 -14 -9 0 -8
-3 1 -12 11 -10 14 -10 18 0 6 16 23 15 23 -2 0 -8 8 -17 18 -21 15 -6 14 -8
-5 -16 -25 -9 -31 -47 -11 -67 8 -8 8 -15 -2 -27 -11 -13 -8 -15 19 -15 37 0
39 -6 9 -30 -18 -14 -20 -20 -10 -33 13 -15 7 -47 -9 -47 -5 0 -13 -8 -16 -17
-4 -10 -14 -24 -22 -31 -9 -8 -10 -10 -3 -7 7 4 22 -1 33 -11 17 -16 22 -16
29 -4 7 12 3 16 -18 20 -26 6 -26 6 -4 12 14 4 22 14 22 27 0 28 20 27 21 -1
5 -129 5 -130 -14 -107 -17 21 -18 21 -39 3 -15 -14 -22 -16 -25 -6 -7 17 -23
15 -23 -4 0 -13 8 -15 39 -12 33 3 41 0 47 -17 3 -11 5 -26 4 -34 -1 -8 4 -11
13 -8 9 3 18 0 20 -7 4 -10 -5 -11 -41 -5 -52 10 -70 4 -20 -6 43 -9 55 -20
63 -56 4 -16 12 -29 20 -29 14 0 50 -49 41 -57 -3 -3 -8 2 -12 11 -3 9 -12 16
-20 16 -23 0 -16 -18 12 -33 17 -9 23 -17 15 -21 -21 -13 -11 -26 17 -20 20 4
32 0 47 -17 11 -12 15 -19 8 -16 -6 4 -22 3 -35 -2 -23 -10 -23 -10 -1 -10 16
-1 21 -6 17 -16 -4 -8 -1 -15 6 -15 15 0 44 -29 37 -37 -11 -10 21 -33 37 -27
9 3 16 2 16 -3 0 -15 -23 -33 -42 -33 -10 0 -18 -5 -18 -11 0 -6 9 -8 20 -4
11 3 20 2 20 -4 0 -5 -6 -11 -12 -14 -7 -2 1 -2 17 1 54 9 115 9 121 1 3 -5
-6 -9 -20 -9 -14 0 -26 -4 -26 -10 0 -10 14 -14 38 -11 6 1 12 -3 12 -9 0 -22
-54 -6 -67 20 -7 14 -13 19 -13 12 0 -9 -7 -11 -20 -7 -11 3 -20 3 -20 -1 0
-11 51 -55 59 -50 4 3 13 0 21 -5 11 -7 0 -9 -35 -4 -50 6 -50 6 -21 -10 37
-20 63 -19 75 2 5 10 12 15 16 12 3 -4 -7 -21 -24 -39 -32 -36 -31 -36 -85 13
-11 9 -27 17 -35 17 -12 -1 -11 -5 7 -19 30 -26 28 -41 -5 -41 -16 0 -35 -5
-43 -10 -12 -8 -9 -10 13 -10 25 0 27 -3 27 -40 0 -29 4 -40 15 -40 11 0 15
11 15 39 0 45 10 51 65 42 43 -7 39 -15 -12 -26 -41 -8 -46 -41 -8 -51 30 -7
33 -24 5 -24 -12 0 -33 -11 -48 -25 -28 -26 -57 -32 -65 -15 -3 6 -4 5 -3 -2
1 -7 15 -14 30 -16 25 -3 26 -6 20 -40 -4 -20 -11 -40 -16 -43 -5 -3 0 -9 11
-12 14 -3 26 2 37 16 15 20 16 20 9 2 -11 -31 -16 -71 -8 -59 5 6 16 13 26 17
16 6 25 37 10 37 -5 0 -8 22 -8 49 0 46 2 50 27 55 14 3 28 13 31 23 4 15 5
14 6 -3 1 -14 -6 -24 -19 -27 -16 -4 -20 -14 -20 -51 0 -43 2 -46 28 -47 l27
-1 -28 -10 c-21 -7 -26 -15 -22 -29 5 -14 1 -19 -14 -19 -12 0 -21 -5 -21 -11
0 -7 14 -10 36 -7 l35 4 -23 -18 c-16 -12 -19 -18 -8 -18 10 -1 7 -5 -7 -12
-28 -14 -38 -38 -15 -38 21 0 37 11 46 30 3 9 5 6 2 -7 -2 -12 -1 -24 3 -26 3
-2 0 -2 -6 -1 -9 2 -13 -9 -13 -35 0 -22 -6 -42 -13 -44 -7 -3 -5 -6 6 -6 12
-1 17 7 17 26 0 42 22 13 23 -31 1 -28 5 -36 19 -36 10 0 18 -7 18 -15 0 -8
-4 -15 -10 -15 -5 0 -10 -5 -10 -11 0 -7 10 -9 24 -5 28 7 43 -9 27 -28 -9
-10 -8 -15 5 -20 20 -8 34 1 34 21 0 15 2 14 18 0 23 -21 46 -22 38 -2 -3 9 0
15 10 15 11 0 13 -6 9 -20 -5 -16 -2 -20 14 -20 12 0 21 -4 21 -9 0 -5 -19 -7
-42 -5 -40 3 -35 0 20 -12 12 -2 22 -9 22 -14 0 -11 -70 -1 -87 13 -18 13 -16
-1 1 -19 8 -8 23 -14 33 -14 10 0 26 -7 36 -14 15 -11 16 -15 4 -18 -11 -2
-12 -9 -5 -28 6 -14 12 -20 15 -13 3 10 10 10 24 2 11 -5 29 -7 39 -4 13 4 22
1 26 -9 4 -9 12 -15 18 -14 6 2 13 0 14 -4 5 -19 1 -28 -15 -29 -14 0 -15 -2
-3 -6 8 -3 19 -12 23 -19 4 -8 19 -14 32 -14 13 0 26 -4 29 -9 3 -4 23 -8 45
-8 35 0 40 3 38 21 -1 16 6 23 30 30 29 9 32 13 28 43 -4 30 -2 33 22 33 18 0
24 4 19 15 -3 8 -1 15 4 15 6 0 10 5 10 10 0 6 -11 8 -25 4 -19 -5 -25 -2 -25
11 0 14 6 16 31 11 26 -5 30 -3 25 10 -3 9 -6 18 -6 20 0 2 -8 4 -17 5 -13 0
-11 3 7 11 14 6 28 12 32 12 18 3 17 15 -1 21 -26 8 -27 25 -2 32 19 5 22 18
8 39 -11 18 4 25 42 18 38 -7 34 10 -4 19 -15 4 -13 5 8 6 28 1 40 31 12 31
-8 0 -15 7 -15 15 0 18 -12 19 -28 3 -10 -10 -15 -10 -22 2 -6 10 -1 18 19 27
16 8 32 28 40 50 9 23 16 31 21 23 6 -9 9 -9 15 0 11 18 -2 24 -53 23 -26 0
-34 1 -19 4 16 2 30 11 33 19 15 48 13 47 29 30 9 -8 14 -19 13 -23 -3 -8 5
-13 22 -13 11 0 2 29 -17 51 -7 9 -11 24 -7 33 8 20 13 20 36 -1 17 -15 20
-15 28 -3 6 10 10 11 10 3 0 -7 -7 -16 -17 -21 -10 -6 -14 -16 -10 -27 8 -19
32 -15 32 6 0 16 23 34 32 25 4 -3 1 -6 -5 -6 -6 0 -9 -7 -6 -15 4 -8 12 -15
18 -15 7 0 25 -13 41 -30 16 -16 34 -30 39 -30 6 0 3 7 -7 14 -16 12 -16 15
-2 29 8 9 15 20 15 26 0 5 9 13 20 16 11 4 18 11 15 16 -4 5 -13 2 -21 -6 -9
-8 -21 -15 -29 -15 -7 0 -15 -4 -17 -8 -1 -4 -13 -3 -26 4 -23 11 -22 12 13
18 20 4 38 13 41 20 7 17 73 14 84 -4 6 -9 5 -17 -3 -22 -8 -5 -4 -8 11 -8 13
0 22 -6 22 -16 0 -8 5 -12 11 -8 6 3 8 17 4 31 -4 18 -2 24 7 20 7 -2 12 -11
10 -18 -5 -22 8 -79 18 -79 6 0 10 8 11 18 0 14 2 14 9 -3 5 -11 9 -15 9 -9 1
7 -5 24 -13 39 -8 14 -13 47 -12 71 1 46 -2 52 -22 32 -17 -17 -26 -3 -13 21
7 13 8 22 1 26 -19 12 -11 45 10 45 17 0 20 7 20 40 0 30 4 40 16 40 8 0 12 5
8 11 -4 7 -10 7 -16 1 -6 -6 -17 -8 -24 -5 -8 3 -14 -1 -14 -9 0 -7 -9 -22
-21 -32 -13 -11 -19 -25 -16 -37 5 -20 -1 -24 -19 -11 -11 8 5 80 19 81 4 1
12 1 18 1 5 0 7 4 4 10 -3 6 -17 10 -31 10 -13 0 -24 4 -24 8 0 18 13 20 43 7
40 -17 88 -8 94 16 3 11 9 19 14 19 12 0 11 -17 -1 -25 -6 -4 -7 -13 -1 -23 4
-9 6 -23 4 -29 -3 -7 0 -13 6 -13 11 0 15 13 11 40 -1 12 1 12 11 3 9 -9 18
-9 32 -2 10 6 30 9 43 6 13 -2 25 1 28 9 3 8 0 11 -10 7 -7 -3 -14 0 -14 7 0
7 -15 10 -41 8 -30 -2 -43 1 -47 12 -4 12 -2 13 9 3 10 -8 20 -9 29 -3 8 6 10
10 4 10 -15 0 -25 26 -18 45 9 23 30 18 52 -12 23 -31 43 -23 23 9 -8 13 -9
24 -3 30 6 6 12 -3 16 -24 5 -25 2 -36 -11 -45 -18 -14 -9 -17 28 -14 10 1 19
-8 23 -24 9 -36 29 -32 21 5 -4 19 -3 30 4 30 8 0 11 700 11 2440 l0 2440
-5000 0 -5000 0 0 -5000z m3835 4933 c28 -33 31 -43 10 -43 -8 0 -15 -7 -15
-15 0 -9 -9 -15 -24 -15 -33 0 -49 45 -28 78 19 29 28 28 57 -5z m-117 -248
c-10 -10 -49 -14 -43 -4 4 5 16 9 27 9 12 0 19 -2 16 -5z m22 -44 c0 -15 -16
-22 -34 -15 -25 9 -19 24 9 24 14 0 25 -4 25 -9z m280 -28 c-1 -24 -2 -26 -11
-10 -5 9 -7 22 -4 27 10 17 15 11 15 -17z m-280 -28 c0 -14 0 -28 0 -32 0 -5
-8 -8 -17 -8 -15 0 -27 39 -16 58 10 17 33 5 33 -18z m247 -62 c7 -10 17 -23
22 -29 5 -6 8 -22 6 -35 -8 -46 -8 -54 -5 -74 2 -15 4 -12 9 10 4 17 7 -58 8
-165 0 -107 2 -244 4 -305 4 -133 -10 -435 -20 -435 -4 0 -7 -17 -6 -37 2 -46
-12 -103 -25 -103 -6 0 -10 9 -10 20 0 11 -4 20 -9 20 -5 0 -5 16 1 38 13 48
13 112 0 237 -5 58 -6 104 -1 109 14 16 10 29 -6 22 -8 -3 -15 -1 -15 4 0 6
10 10 21 10 17 0 19 3 10 14 -9 11 -9 16 0 22 9 5 6 10 -10 15 -12 5 -24 17
-27 26 -3 10 -10 26 -15 35 -5 10 -9 25 -9 35 0 15 1 15 14 -2 12 -16 17 -17
45 -6 17 8 31 16 31 20 0 12 -40 31 -55 25 -11 -5 -15 1 -15 20 0 14 4 26 10
26 5 0 7 7 4 15 -4 9 0 15 8 15 19 0 19 111 0 118 -14 4 -16 72 -2 72 6 0 10
9 10 20 0 11 -4 20 -9 20 -5 0 -13 9 -16 20 -3 11 -13 20 -22 20 -9 0 -13 6
-9 15 3 8 1 15 -4 15 -13 0 -41 95 -37 127 3 22 9 28 28 28 16 0 24 5 23 16
-1 14 4 15 30 8 17 -5 36 -17 43 -26z m-230 -87 c-4 -9 3 -16 16 -20 21 -6 21
-7 3 -20 -10 -8 -15 -19 -11 -25 3 -6 -1 -11 -9 -11 -10 0 -13 6 -10 15 4 10
0 15 -11 15 -11 0 -15 -5 -11 -15 3 -9 0 -15 -9 -15 -20 0 -19 39 0 46 8 4 12
11 9 16 -4 6 0 14 7 19 21 13 32 11 26 -5z m-32 -96 c-3 -5 -15 -10 -26 -10
-10 0 -19 5 -19 10 0 6 12 10 26 10 14 0 23 -4 19 -10z m200 -1015 c19 -22 25
-24 25 -11 0 16 1 16 16 1 20 -19 21 -47 5 -135 -7 -36 -14 -144 -16 -240 -4
-194 -13 -360 -21 -403 -6 -28 -7 -29 -53 -22 -82 12 -88 15 -95 47 -4 23 -1
34 11 44 24 18 33 17 33 -1 0 -8 5 -15 10 -15 6 0 10 6 10 14 0 7 7 20 16 27
27 22 1 129 -31 129 -11 0 -15 11 -15 39 0 21 -9 58 -19 82 -17 38 -18 46 -5
70 8 16 14 35 14 44 0 17 -36 70 -48 70 -10 1 -48 24 -40 25 4 0 3 14 -2 30
-7 24 -6 30 6 30 8 0 12 -4 9 -10 -3 -5 -1 -10 4 -10 6 0 11 6 11 14 0 8 4 16
9 18 5 2 0 31 -11 65 -14 42 -18 73 -14 97 7 38 19 45 83 49 18 1 33 7 33 13
0 6 10 18 23 27 21 14 22 14 25 -22 2 -21 13 -49 27 -66z m2353 -950 c-6 -14
-13 -23 -16 -21 -7 7 9 46 18 46 5 0 4 -11 -2 -25z m134 -13 c-7 -2 -12 -11
-12 -20 -1 -15 -2 -14 -11 2 -9 14 -8 20 2 27 7 4 18 5 23 2 6 -4 5 -8 -2 -11z
m95 -8 c-3 -3 -12 -4 -19 -1 -8 3 -5 6 6 6 11 1 17 -2 13 -5z m-54 -41 c11
-10 -13 -33 -34 -33 -12 0 -19 7 -19 20 0 14 7 20 23 20 13 0 27 -3 30 -7z
m151 -62 c4 -5 -3 -7 -14 -4 -23 6 -26 13 -6 13 8 0 17 -4 20 -9z m134 -171
c10 0 23 -9 29 -19 10 -17 9 -20 -15 -24 -34 -7 -62 8 -62 33 0 19 22 34 28
19 2 -5 11 -9 20 -9z m127 10 c3 -5 1 -10 -4 -10 -6 0 -11 5 -11 10 0 6 2 10
4 10 3 0 8 -4 11 -10z m-65 -70 c0 -5 -7 -10 -15 -10 -8 0 -15 5 -15 10 0 6 7
10 15 10 8 0 15 -4 15 -10z m160 -10 c0 -5 -4 -10 -9 -10 -6 0 -13 5 -16 10
-3 6 1 10 9 10 9 0 16 -4 16 -10z m-3286 -44 c-4 -11 -14 -26 -23 -33 -13 -10
-19 -8 -34 10 -18 21 -18 22 8 45 21 18 30 20 41 11 9 -7 12 -20 8 -33z m796
-31 c-7 -8 -22 -15 -34 -14 -18 0 -16 3 9 14 39 18 40 18 25 0z m-185 -37 c6
-4 2 -8 -7 -8 -10 0 -18 7 -18 17 0 9 3 12 8 7 4 -5 12 -12 17 -16z m190 -18
c3 -5 1 -10 -4 -10 -6 0 -11 5 -11 10 0 6 2 10 4 10 3 0 8 -4 11 -10z m-376
-73 c38 -30 48 -33 119 -36 42 -1 89 -9 105 -17 99 -52 94 -40 45 -108 -15
-21 -28 -45 -28 -53 0 -8 -9 -26 -20 -40 -25 -32 -25 -48 1 -74 11 -11 19 -30
17 -42 -2 -14 4 -26 17 -32 11 -6 31 -30 44 -55 14 -24 27 -38 29 -32 2 8 18
1 45 -21 51 -41 221 -104 240 -89 6 5 32 9 56 7 41 -2 48 1 92 45 26 26 57 66
68 89 12 22 27 41 35 41 7 0 25 -17 39 -37 27 -40 78 -148 75 -161 -1 -4 4
-20 11 -37 7 -16 14 -41 16 -55 2 -14 8 -24 14 -22 6 1 14 -6 18 -15 3 -10 18
-28 32 -40 29 -24 21 -44 -10 -25 -17 11 -21 9 -31 -13 -10 -23 -30 -36 -26
-17 0 4 -11 32 -25 62 l-26 55 3 -67 c2 -56 0 -66 -11 -57 -7 6 -13 8 -13 3 0
-5 -7 1 -15 13 -8 12 -14 32 -13 45 3 20 -1 23 -30 23 -23 0 -37 7 -43 20 -10
20 -10 20 5 1 9 -11 16 -16 16 -11 0 5 -7 17 -17 27 -17 19 -43 24 -43 9 0 -5
-12 -6 -27 -2 -17 5 -27 14 -27 24 1 10 -2 17 -7 17 -5 0 -9 -7 -9 -16 0 -11
-5 -14 -17 -9 -15 5 -15 3 2 -13 11 -11 23 -18 28 -15 4 2 7 -1 7 -8 0 -6 -8
-9 -20 -6 -11 3 -23 1 -26 -4 -10 -17 -47 -9 -70 16 -15 16 -34 25 -53 25 -30
0 -55 19 -99 75 -12 15 -22 24 -22 20 0 -5 7 -17 17 -27 9 -10 12 -18 7 -19
-5 0 -17 -2 -26 -4 -10 -2 -18 1 -18 6 0 5 -8 9 -18 9 -10 0 -28 11 -40 25
-12 14 -26 25 -31 25 -5 0 -13 9 -16 21 -4 13 -12 18 -22 15 -17 -7 -53 10
-53 24 0 6 11 10 24 10 23 0 48 18 29 21 -4 1 -20 3 -35 4 -40 5 -65 22 -72
47 -7 28 -57 58 -84 51 -16 -4 -20 2 -25 29 -2 18 -3 35 -1 37 2 2 19 4 38 5
31 1 35 4 30 21 -3 11 -12 26 -19 34 -12 12 -18 12 -40 -3 -16 -10 -24 -23
-21 -32 3 -8 2 -14 -2 -14 -4 0 -13 14 -19 31 -10 25 -9 34 2 45 7 8 18 14 24
14 14 0 14 17 1 25 -5 3 -10 1 -10 -4 0 -20 -32 -11 -37 10 -4 16 -8 17 -14 7
-6 -9 -11 -10 -20 -1 -13 13 -19 73 -7 73 4 0 8 5 8 11 0 7 -12 9 -31 7 -30
-5 -31 -4 -26 29 6 32 1 38 -30 34 -19 -3 -15 19 5 27 9 4 18 13 20 21 2 11
-3 10 -23 -3 -14 -9 -25 -12 -25 -7 0 6 51 38 66 41 1 0 20 -15 43 -33z m-119
-11 c0 -3 -4 -8 -10 -11 -5 -3 -10 -1 -10 4 0 6 5 11 10 11 6 0 10 -2 10 -4z
m41 -73 c-12 -20 -14 -14 -5 12 4 9 9 14 11 11 3 -2 0 -13 -6 -23z m-141 8 c0
-6 -4 -12 -8 -15 -5 -3 -9 1 -9 9 0 8 4 15 9 15 4 0 8 -4 8 -9z m3745 -11 c-3
-5 -15 -10 -26 -10 -10 0 -19 5 -19 10 0 6 12 10 26 10 14 0 23 -4 19 -10z
m-3722 -21 c-4 -13 -9 -17 -15 -11 -11 11 -3 32 12 32 4 0 6 -9 3 -21z m902
-39 c3 -5 1 -10 -4 -10 -6 0 -11 5 -11 10 0 6 2 10 4 10 3 0 8 -4 11 -10z
m165 -5 c11 -13 10 -14 -4 -9 -9 3 -16 10 -16 15 0 13 6 11 20 -6z m-129 -28
c-1 -12 -15 -9 -19 4 -3 6 1 10 8 8 6 -3 11 -8 11 -12z m23 -34 c4 -10 4 -14
0 -10 -4 4 -16 0 -26 -10 -10 -9 -21 -13 -26 -9 -4 4 4 16 17 27 28 23 27 23
35 2z m-744 -7 c0 -3 -4 -8 -10 -11 -5 -3 -10 -1 -10 4 0 6 5 11 10 11 6 0 10
-2 10 -4z m-556 -90 c-4 -18 -1 -25 16 -29 19 -5 20 -8 8 -26 -7 -12 -20 -21
-28 -21 -13 0 -13 1 0 11 11 8 12 12 3 16 -7 2 -13 13 -13 24 0 10 -4 19 -10
19 -5 0 -10 7 -10 15 0 8 9 15 20 15 16 0 19 -5 14 -24z m546 -6 c-8 -5 -19
-10 -25 -10 -5 0 -3 5 5 10 8 5 20 10 25 10 6 0 3 -5 -5 -10z m-380 -42 c14
-13 25 -21 25 -19 0 2 17 -4 38 -13 40 -20 50 -38 15 -28 -19 5 -20 4 -7 -10
7 -9 17 -14 21 -12 9 6 22 -16 14 -23 -3 -3 -12 0 -20 6 -8 7 -20 10 -25 7 -6
-4 -17 4 -26 18 -9 14 -23 22 -30 20 -15 -6 -38 29 -27 41 4 5 -1 5 -10 2 -21
-8 -48 1 -48 15 0 6 9 8 20 5 11 -3 20 -1 20 4 0 15 15 10 40 -13z m106 4 c-2
-4 4 -19 15 -32 l20 -25 -6 24 c-5 16 -4 21 4 17 16 -10 14 -31 -4 -46 -13
-11 -18 -10 -29 6 -11 14 -11 21 -3 26 7 4 -4 8 -23 8 l-35 1 30 14 c37 17 37
17 31 7z m1284 -58 c0 -8 -4 -12 -10 -9 -5 3 -10 10 -10 16 0 5 5 9 10 9 6 0
10 -7 10 -16z m-1596 -20 c11 -29 6 -44 -15 -44 -17 0 -19 3 -10 14 9 11 9 15
0 18 -7 2 -9 10 -5 16 10 17 23 15 30 -4z m235 -16 c6 -10 9 -18 7 -18 -14 0
-56 21 -56 28 0 15 38 8 49 -10z m-85 3 c3 -5 -5 -8 -18 -7 -13 0 -22 4 -19 9
6 10 31 9 37 -2z m-54 -29 c0 -5 -12 -14 -27 -21 l-28 -13 20 21 c21 21 35 26
35 13z m120 -13 c0 -6 6 -9 14 -6 8 3 17 -1 20 -10 5 -11 2 -14 -9 -9 -9 3
-13 2 -10 -4 3 -6 16 -8 28 -5 15 4 26 0 35 -15 10 -16 10 -20 0 -21 -7 0 -23
-2 -35 -5 -16 -3 -21 0 -17 10 4 11 0 13 -15 9 -12 -3 -21 -1 -21 6 0 6 -7 11
-16 11 -9 0 -12 5 -8 13 4 6 4 9 -1 5 -10 -9 -47 10 -41 21 8 12 76 12 76 0z
m-240 -29 c0 -5 -5 -10 -11 -10 -5 0 -7 5 -4 10 3 6 8 10 11 10 2 0 4 -4 4
-10z m374 -5 c4 -11 -2 -15 -21 -15 -21 0 -24 2 -13 15 7 8 16 15 20 15 4 0
10 -7 14 -15z m-216 -18 c7 -5 15 -7 18 -4 3 3 21 -3 40 -14 36 -20 109 -26
119 -9 4 6 15 5 30 -2 30 -13 41 -38 17 -38 -15 0 -15 -2 -2 -10 12 -8 9 -10
-12 -10 -21 0 -26 4 -23 20 2 11 0 22 -6 25 -5 4 -9 -4 -9 -15 0 -19 -4 -21
-27 -15 -15 3 -30 10 -33 15 -3 5 -12 5 -19 0 -9 -5 -23 0 -40 16 -41 38 -84
27 -61 -16 10 -18 8 -20 -17 -19 -17 1 -21 3 -11 6 15 4 16 8 7 24 -9 17 -13
18 -27 7 -13 -11 -14 -11 -7 2 5 8 8 25 7 37 -3 18 1 21 20 16 13 -3 29 -10
36 -16z m-88 -21 c0 -2 -7 -7 -16 -10 -8 -3 -12 -2 -9 4 6 10 25 14 25 6z m5
-36 c3 -5 2 -10 -4 -10 -5 0 -13 5 -16 10 -3 6 -2 10 4 10 5 0 13 -4 16 -10z
m173 -31 c2 -5 12 -9 23 -9 12 0 19 -7 19 -19 0 -11 4 -22 9 -25 14 -9 41 5
41 21 0 8 6 13 13 10 6 -2 25 2 40 10 16 8 31 12 35 9 3 -3 0 -6 -6 -6 -7 0
-11 -3 -11 -7 1 -5 1 -15 0 -22 -1 -12 -4 -12 -13 -3 -9 9 -15 3 -24 -24 -13
-39 -8 -77 7 -53 4 8 11 10 16 6 4 -5 1 -12 -6 -17 -20 -12 -61 10 -61 32 0
12 4 16 12 12 7 -4 8 -3 4 4 -4 7 -18 12 -31 12 -13 0 -27 5 -30 10 -4 6 -9 8
-13 6 -4 -2 -13 2 -20 10 -10 11 -10 14 0 14 25 0 -12 24 -40 26 -35 3 -34 2
-26 15 7 12 57 3 62 -12z m72 -35 c0 -8 -5 -12 -10 -9 -6 4 -8 11 -5 16 9 14
15 11 15 -7z m196 -39 c9 -9 11 -15 4 -15 -6 0 -8 -6 -4 -12 4 -8 3 -10 -2 -5
-5 5 -9 12 -9 15 0 4 -4 13 -8 20 -11 17 1 15 19 -3z m-40 -16 c2 -4 0 -10 -5
-14 -6 -3 -8 -12 -5 -20 4 -10 0 -12 -15 -8 -12 3 -21 13 -21 23 0 10 -6 21
-12 24 -7 2 2 4 20 3 19 -1 36 -5 38 -8z m609 -19 c3 -6 -1 -7 -9 -4 -18 7
-21 14 -7 14 6 0 13 -4 16 -10z m307 1 c19 10 23 3 9 -20 -7 -10 -13 -11 -30
-2 -11 7 -21 17 -21 23 0 9 3 9 12 0 7 -7 17 -8 30 -1z m8 -66 c-7 -9 -15 -13
-17 -11 -7 7 7 26 19 26 6 0 6 -6 -2 -15z m84 3 c-3 -4 2 -19 11 -32 l17 -25
-31 9 c-21 6 -31 5 -35 -3 -2 -7 -5 -4 -5 6 -1 10 -5 15 -11 12 -12 -8 -13 5
-1 24 5 8 14 10 21 6 8 -5 11 -4 6 3 -4 6 1 10 13 9 11 0 17 -5 15 -9z m3346
-28 c0 -9 -32 -6 -48 4 -10 6 -10 11 -1 22 10 13 14 12 30 -2 11 -10 19 -20
19 -24z m-4285 -7 c17 -11 17 -13 2 -13 -9 0 -17 5 -17 10 0 6 -4 10 -10 10
-5 0 -10 -7 -10 -15 0 -13 -4 -14 -22 -3 -20 11 -21 13 -5 16 9 2 15 8 12 13
-7 11 23 0 50 -18z m1096 4 c-10 -9 -11 -8 -5 6 3 10 9 15 12 12 3 -3 0 -11
-7 -18z m41 -59 c-7 -7 -12 -8 -12 -2 0 14 12 26 19 19 2 -3 -1 -11 -7 -17z
m-1097 2 c3 -5 -1 -10 -10 -10 -9 0 -13 5 -10 10 3 6 8 10 10 10 2 0 7 -4 10
-10z m1045 0 c0 -5 -6 -10 -14 -10 -8 0 -18 5 -21 10 -3 6 3 10 14 10 12 0 21
-4 21 -10z m-1021 -67 c-7 -10 -15 -20 -16 -22 -2 -2 -3 5 -3 17 0 14 6 22 16
22 14 0 15 -3 3 -17z m51 -7 c0 -3 -4 -8 -10 -11 -5 -3 -10 -1 -10 4 0 6 5 11
10 11 6 0 10 -2 10 -4z m975 -26 c13 -40 -14 -53 -31 -15 -9 18 -9 25 0 29 20
8 25 6 31 -14z m-83 -37 c-8 -3 -5 -11 10 -25 13 -11 17 -17 11 -13 -7 3 -13
1 -13 -5 0 -6 -4 -8 -10 -5 -6 3 -7 -1 -4 -9 7 -18 34 -22 34 -6 0 15 22 12
48 -8 19 -15 21 -21 12 -51 -11 -40 -12 -39 22 -43 15 -2 31 -8 35 -13 4 -4 2
-5 -4 -1 -9 5 -12 -5 -11 -39 1 -25 6 -45 10 -45 4 0 8 -4 8 -10 0 -16 -32
-11 -46 8 -12 16 -13 16 -14 0 0 -23 -18 -32 -36 -17 -8 6 -18 9 -22 5 -12
-13 29 -36 47 -27 13 8 16 3 16 -22 0 -24 4 -31 16 -29 11 1 19 -9 25 -30 6
-18 15 -33 21 -33 15 0 41 -25 28 -26 -6 0 -20 -2 -32 -5 -14 -2 -23 1 -23 9
0 6 -5 4 -11 -6 -6 -10 -8 -21 -5 -24 3 -4 6 -1 6 6 0 7 5 9 13 4 6 -4 20 -9
31 -10 10 -2 26 -8 35 -14 13 -8 12 -9 -6 -4 -12 3 -24 1 -28 -5 -3 -6 -9 -8
-13 -6 -4 2 -7 -9 -8 -25 -1 -31 5 -36 24 -17 9 9 12 9 12 -3 0 -7 3 -25 6
-39 5 -21 4 -22 -6 -7 -6 9 -20 17 -32 17 -20 0 -20 -1 -5 -18 10 -10 17 -24
17 -30 0 -7 6 -12 13 -13 9 0 9 -2 0 -6 -10 -3 -9 -8 3 -20 8 -8 13 -18 10
-20 -3 -3 -19 10 -36 27 -23 23 -28 35 -20 40 16 10 2 33 -16 26 -8 -3 -14 -1
-14 4 0 6 6 10 13 10 6 0 4 5 -7 11 -14 9 -15 13 -6 19 8 5 10 15 6 26 -7 17
-9 17 -27 -6 -12 -14 -18 -20 -15 -13 3 6 2 22 -3 35 -6 13 -10 16 -11 8 0 -8
-3 -25 -6 -37 -4 -16 0 -23 15 -28 13 -4 21 -15 21 -28 0 -11 10 -31 22 -44
17 -19 18 -23 6 -23 -9 0 -23 -3 -32 -6 -11 -4 -16 -1 -16 10 0 9 -5 16 -11
16 -6 0 -9 -7 -5 -15 6 -15 -5 -20 -18 -8 -3 4 -17 8 -29 10 -21 3 -21 2 -3
-12 11 -8 27 -15 36 -15 8 0 28 -11 43 -25 15 -14 27 -21 27 -15 0 5 7 10 15
10 9 0 12 -6 9 -15 -4 -9 0 -15 10 -15 9 0 16 -4 16 -9 0 -11 -53 -8 -62 4 -9
13 -25 -3 -30 -30 -2 -12 3 -21 12 -21 8 -1 23 -2 33 -3 23 -1 22 -21 -1 -21
-24 0 -47 -43 -37 -67 5 -12 9 -14 12 -5 7 18 43 15 43 -4 0 -8 4 -13 9 -10 5
4 7 -2 4 -13 -3 -11 6 -29 22 -46 23 -26 24 -30 10 -44 -14 -14 -17 -14 -25
-1 -5 8 -7 23 -4 33 3 9 1 17 -5 17 -6 0 -11 11 -11 25 0 29 -28 45 -40 24 -7
-11 -10 -10 -15 3 -4 10 -15 15 -27 13 -14 -3 -18 0 -14 10 4 11 -2 15 -24 15
-19 0 -30 5 -30 14 0 18 -27 29 -33 13 -3 -9 -8 -9 -20 2 -9 7 -14 18 -11 23
4 6 10 5 15 -3 6 -11 9 -10 15 4 4 10 2 23 -5 30 -13 13 -14 27 -2 27 5 0 13
-9 16 -20 8 -26 25 -16 18 10 -3 12 -8 18 -11 15 -3 -2 -11 0 -19 6 -10 9 -17
8 -28 -1 -17 -14 -20 -3 -6 19 5 8 22 15 38 15 36 1 41 17 12 36 -21 14 -22
14 -16 -3 5 -13 3 -17 -5 -14 -7 2 -12 9 -11 14 1 5 -6 9 -15 10 -10 1 -24 3
-31 5 -8 2 -17 -5 -19 -14 -2 -13 1 -16 12 -12 12 5 16 0 16 -20 0 -14 -4 -26
-9 -26 -5 0 -16 -7 -24 -15 -14 -13 -22 -12 -70 10 -30 13 -57 21 -60 18 -3
-3 -3 4 0 16 3 11 9 18 14 15 5 -3 9 0 9 5 0 6 6 11 13 11 8 0 14 6 14 13 0
10 -10 12 -36 7 -30 -5 -36 -10 -34 -28 2 -12 -2 -22 -8 -22 -5 0 -7 5 -4 10
4 6 -7 15 -24 21 -17 6 -29 15 -26 19 3 5 1 11 -5 15 -5 3 -10 17 -10 31 0 14
-9 34 -20 46 -11 12 -19 27 -19 32 4 39 -22 54 -54 31 -18 -13 -19 -15 -4 -15
9 0 17 5 17 10 0 6 5 10 10 10 6 0 10 -7 10 -15 0 -8 -5 -15 -12 -15 -6 0 -3
-6 7 -14 24 -17 28 -58 6 -54 -9 2 -16 12 -16 23 0 14 -8 21 -27 23 -16 2 -28
7 -28 11 0 5 -9 11 -20 14 -11 3 -20 13 -21 24 0 10 -2 27 -4 37 -2 11 4 25
12 32 13 9 21 8 36 -7 21 -19 43 -16 30 4 -4 7 -7 21 -8 32 0 12 -7 20 -17 20
-26 0 -31 12 -8 18 14 3 29 -2 40 -13 11 -11 22 -15 25 -10 3 5 -5 16 -17 24
-21 15 -20 15 15 9 24 -4 37 -2 37 6 0 6 -6 11 -12 11 -7 0 -24 25 -38 55 -14
31 -27 50 -29 43 -2 -7 -11 -19 -20 -26 -9 -8 -10 -11 -3 -7 6 3 12 1 12 -4 0
-20 -20 -11 -30 12 l-9 22 0 -22 c-1 -13 -7 -23 -13 -24 -7 0 -25 -2 -39 -4
-17 -2 -35 4 -47 16 -12 11 -24 15 -27 9 -7 -12 12 -50 25 -50 6 0 10 -5 10
-11 0 -8 -6 -7 -17 2 -9 8 -18 13 -20 12 -26 -19 -35 36 -9 58 16 13 17 19 7
37 -10 18 -9 22 3 22 8 0 16 6 19 13 3 8 7 6 12 -7 5 -10 4 -26 -2 -35 -20
-31 29 -48 49 -17 11 17 10 24 -7 29 -11 4 -10 4 2 3 13 -1 19 -11 21 -34 2
-18 7 -30 12 -27 5 3 7 12 4 19 -6 16 30 31 47 20 8 -4 9 1 4 17 -8 28 -54 71
-66 63 -5 -3 -9 -1 -9 4 0 20 14 20 41 1 29 -20 40 -14 17 9 -9 9 -9 12 3 12
8 0 20 -10 28 -21 10 -18 15 -19 22 -8 4 8 16 14 26 14 9 0 20 9 23 20 3 13
15 21 34 22 16 1 32 7 36 13 4 6 14 8 24 4 14 -5 15 -9 4 -15 -9 -6 -6 -9 10
-9 15 0 26 7 29 19 6 22 30 18 51 -7 11 -14 12 -14 12 4 0 10 5 26 11 34 8 12
9 10 4 -9 -5 -15 -2 -27 6 -32 25 -16 32 -10 25 22 -4 22 -2 29 7 26 6 -2 12
-13 11 -25 0 -19 1 -19 22 -4 12 9 19 23 17 29 -7 18 8 16 35 -3 20 -14 22
-14 22 5 0 10 -3 21 -7 24 -5 2 -3 2 4 1 6 -2 17 4 23 12 7 8 22 14 34 13 11
0 15 -3 8 -6z m73 -23 c5 -8 11 -7 20 0 14 12 35 6 35 -10 0 -4 -9 -6 -20 -3
-11 3 -20 1 -20 -4 0 -6 -11 -8 -25 -5 -14 2 -25 11 -25 18 0 16 26 19 35 4z
m-835 -30 c0 -5 -2 -10 -4 -10 -3 0 -8 5 -11 10 -3 6 -1 10 4 10 6 0 11 -4 11
-10z m-60 -10 c0 -5 -2 -10 -4 -10 -3 0 -8 5 -11 10 -3 6 -1 10 4 10 6 0 11
-4 11 -10z m153 -15 c-3 -9 -8 -14 -10 -11 -3 3 -2 9 2 15 9 16 15 13 8 -4z
m792 -46 c-6 10 -4 12 4 7 16 -10 9 -29 -12 -32 -11 -1 -17 5 -17 18 0 18 2
19 17 7 14 -12 16 -12 8 0z m3246 -82 c-10 -9 -11 -8 -5 6 3 10 9 15 12 12 3
-3 0 -11 -7 -18z m-4051 -17 c0 -13 -20 -13 -40 0 -12 8 -9 10 13 10 15 0 27
-4 27 -10z m4020 -11 c0 -5 -10 -9 -21 -9 -18 0 -19 2 -9 15 12 15 30 12 30
-6z m-4091 -18 c0 -9 -3 -11 -5 -4 -3 7 -12 9 -20 6 -10 -4 -12 0 -8 10 7 20
34 10 33 -12z m1084 4 c0 -6 -7 -11 -16 -13 -12 -3 -15 1 -11 13 7 17 25 17
27 0z m-73 -20 c7 -9 8 -15 2 -15 -5 0 -12 7 -16 15 -3 8 -4 15 -2 15 2 0 9
-7 16 -15z m-720 -43 c-14 -5 -30 16 -30 38 1 10 7 7 21 -10 14 -17 17 -26 9
-28z m-86 -49 c-4 -21 -13 -42 -20 -46 -8 -4 -12 -20 -10 -37 2 -16 -1 -27 -5
-24 -5 3 -9 14 -9 25 0 11 -8 23 -17 26 -10 4 -26 15 -36 24 -18 16 -17 17 11
15 16 -1 36 -7 45 -14 8 -7 18 -9 21 -4 3 4 -4 15 -15 22 -26 19 -25 44 1 37
11 -3 18 -1 14 4 -3 5 2 9 11 9 13 0 15 -7 9 -37z m706 6 c0 -6 -4 -7 -10 -4
-5 3 -10 11 -10 16 0 6 5 7 10 4 6 -3 10 -11 10 -16z m4270 -29 c0 -5 -4 -10
-10 -10 -5 0 -10 5 -10 10 0 6 5 10 10 10 6 0 10 -4 10 -10z m135 -20 c3 -5 1
-10 -4 -10 -6 0 -11 5 -11 10 0 6 2 10 4 10 3 0 8 -4 11 -10z m-166 -36 c-15
-18 -22 -13 -13 10 3 9 10 13 16 10 5 -3 4 -12 -3 -20z m68 20 c-3 -3 -12 -4
-19 -1 -8 3 -5 6 6 6 11 1 17 -2 13 -5z m-4021 -58 c18 -19 18 -27 0 -20 -14
5 -31 34 -20 34 3 0 12 -6 20 -14z m3044 -6 c0 -5 -7 -7 -15 -4 -8 4 -12 10
-9 15 6 11 24 2 24 -11z m1040 10 c0 -5 -2 -10 -4 -10 -3 0 -8 5 -11 10 -3 6
-1 10 4 10 6 0 11 -4 11 -10z m143 -7 c-7 -2 -19 -2 -25 0 -7 3 -2 5 12 5 14
0 19 -2 13 -5z m-1148 -13 c3 -5 1 -10 -4 -10 -6 0 -11 5 -11 10 0 6 2 10 4
10 3 0 8 -4 11 -10z m-3035 -26 c0 -8 -4 -12 -10 -9 -5 3 -10 10 -10 16 0 5 5
9 10 9 6 0 10 -7 10 -16z m4124 0 c4 -11 13 -14 27 -11 16 4 19 2 13 -11 -4
-9 -7 -28 -7 -41 1 -29 -22 -57 -32 -40 -4 6 -2 16 4 22 6 6 11 18 10 27 0 10
-2 11 -6 3 -9 -24 -20 -13 -15 17 3 18 0 30 -7 30 -6 0 -11 5 -11 10 0 16 17
12 24 -6z m-931 -11 c-7 -2 -19 -2 -25 0 -7 3 -2 5 12 5 14 0 19 -2 13 -5z
m-154 -22 c-13 -11 -28 -17 -33 -14 -5 3 2 12 15 19 35 20 45 17 18 -5z m76 9
c3 -5 1 -10 -4 -10 -6 0 -11 5 -11 10 0 6 2 10 4 10 3 0 8 -4 11 -10z m845
-15 c0 -16 -6 -25 -15 -25 -15 0 -21 31 -8 43 13 14 23 6 23 -18z m-805 4 c11
-17 -1 -21 -15 -4 -8 9 -8 15 -2 15 6 0 14 -5 17 -11z m931 -25 c8 3 14 -1 14
-9 0 -20 -12 -24 -40 -13 -15 6 -20 12 -12 15 6 3 13 14 13 26 2 21 2 21 6 -1
3 -15 10 -22 19 -18z m214 16 c0 -5 -2 -10 -4 -10 -3 0 -8 5 -11 10 -3 6 -1
10 4 10 6 0 11 -4 11 -10z m-280 -24 c0 -3 -4 -8 -10 -11 -5 -3 -10 -1 -10 4
0 6 5 11 10 11 6 0 10 -2 10 -4z m-4910 -26 c0 -5 -4 -10 -10 -10 -5 0 -10 5
-10 10 0 6 5 10 10 10 6 0 10 -4 10 -10z m5320 0 c0 -5 -2 -10 -4 -10 -3 0 -8
5 -11 10 -3 6 -1 10 4 10 6 0 11 -4 11 -10z m-745 -10 c-3 -5 -10 -10 -16 -10
-5 0 -9 5 -9 10 0 6 7 10 16 10 8 0 12 -4 9 -10z m410 -40 l30 0 -33 -20 c-23
-14 -32 -26 -28 -36 3 -9 6 -18 6 -20 0 -2 6 -4 14 -4 12 0 12 -6 3 -29 -13
-35 -26 -32 -19 4 2 15 0 25 -7 25 -7 0 -10 4 -7 9 3 4 -6 13 -20 20 -14 6
-22 16 -19 21 3 6 -4 14 -16 18 -15 6 -18 11 -11 16 16 10 52 -2 49 -16 -1 -6
4 -13 11 -15 17 -7 15 22 -3 37 -8 7 -15 20 -15 29 0 11 6 7 18 -11 12 -21 25
-28 47 -28z m109 15 c4 -10 -1 -15 -14 -15 -11 0 -20 7 -20 15 0 8 6 15 14 15
8 0 16 -7 20 -15z m241 -5 c-3 -5 -11 -10 -16 -10 -6 0 -7 5 -4 10 3 6 11 10
16 10 6 0 7 -4 4 -10z m-678 -6 c-3 -3 -12 -4 -19 -1 -8 3 -5 6 6 6 11 1 17
-2 13 -5z m193 -4 c0 -5 -5 -10 -11 -10 -5 0 -7 5 -4 10 3 6 8 10 11 10 2 0 4
-4 4 -10z m-4325 -20 c3 -5 -3 -10 -15 -10 -12 0 -18 5 -15 10 3 6 10 10 15
10 5 0 12 -4 15 -10z m4570 0 c-3 -5 -17 -10 -31 -10 -13 0 -24 5 -24 10 0 6
14 10 31 10 17 0 28 -4 24 -10z m-4037 -11 c-2 -3 4 -14 12 -24 14 -17 13 -18
-13 -11 -22 5 -27 4 -22 -6 4 -7 -1 -4 -9 6 -9 11 -16 25 -15 30 0 6 3 5 6 -1
2 -7 12 -13 20 -13 10 0 13 6 9 16 -3 9 -1 14 5 12 6 -2 9 -6 7 -9z m3807 -9
c3 -5 -3 -10 -15 -10 -12 0 -18 5 -15 10 3 6 10 10 15 10 5 0 12 -4 15 -10z
m-103 -22 c-8 -8 -17 -8 -34 0 -22 10 -21 11 12 11 26 1 31 -2 22 -11z m-4172
-14 c0 -8 4 -12 10 -9 6 3 7 -1 4 -9 -9 -24 -21 -19 -26 9 -3 14 -1 25 3 25 5
0 9 -7 9 -16z m3485 -32 c-3 -3 -5 0 -5 6 0 7 -7 12 -15 12 -13 0 -14 2 -3 14
11 12 14 11 21 -7 4 -11 5 -22 2 -25z m-3375 18 c0 -5 -7 -7 -15 -4 -8 4 -15
8 -15 10 0 2 7 4 15 4 8 0 15 -4 15 -10z m-520 -4 c0 -3 -4 -8 -10 -11 -5 -3
-10 -1 -10 4 0 6 5 11 10 11 6 0 10 -2 10 -4z m124 -19 c4 4 4 0 0 -10 -4 -12
-13 -16 -28 -11 -32 10 -43 23 -26 34 10 6 20 4 31 -6 8 -8 19 -11 23 -7z
m4572 -33 c-21 -20 -28 -17 -14 5 7 11 16 17 20 15 5 -3 2 -12 -6 -20z m-4646
6 c0 -5 -2 -10 -4 -10 -3 0 -8 5 -11 10 -3 6 -1 10 4 10 6 0 11 -4 11 -10z
m4030 -10 c0 -11 -4 -20 -9 -20 -5 0 -7 9 -4 20 3 11 7 20 9 20 2 0 4 -9 4
-20z m200 -1 c0 -5 -4 -9 -10 -9 -5 0 -10 7 -10 16 0 8 5 12 10 9 6 -3 10 -10
10 -16z m177 15 c-3 -3 -12 -4 -19 -1 -8 3 -5 6 6 6 11 1 17 -2 13 -5z m-4027
-25 c0 -5 5 -7 11 -3 8 4 8 1 0 -14 -7 -13 -17 -19 -27 -15 -8 3 -12 8 -10 11
3 3 -2 11 -12 18 -15 12 -14 13 11 14 15 0 27 -5 27 -11z m4120 7 c0 -9 -40
-13 -46 -5 -3 5 6 9 20 9 14 0 26 -2 26 -4z m-4205 -14 c13 -9 17 -32 6 -32
-5 0 -12 7 -15 16 -5 13 -9 14 -21 4 -9 -8 -15 -8 -15 -2 0 6 6 13 13 15 17 8
21 8 32 -1z m4255 -38 c0 -13 -4 -24 -10 -24 -5 0 -10 14 -10 31 0 17 4 28 10
24 6 -3 10 -17 10 -31z m-4120 16 c0 -5 -2 -10 -4 -10 -3 0 -8 5 -11 10 -3 6
-1 10 4 10 6 0 11 -4 11 -10z m4080 0 c0 -5 -7 -10 -15 -10 -8 0 -15 5 -15 10
0 6 7 10 15 10 8 0 15 -4 15 -10z m-490 -4 c0 -3 -4 -8 -10 -11 -5 -3 -10 -1
-10 4 0 6 5 11 10 11 6 0 10 -2 10 -4z m450 -6 c0 -5 -4 -10 -10 -10 -5 0 -10
5 -10 10 0 6 5 10 10 10 6 0 10 -4 10 -10z m334 -6 c10 -26 7 -34 -11 -34 -16
0 -16 2 -3 11 11 8 12 12 3 16 -15 5 -17 23 -4 23 5 0 12 -7 15 -16z m-4468
-13 c0 -15 -3 -17 -13 -9 -7 6 -10 14 -7 19 9 15 20 10 20 -10z m128 4 c4 -11
-2 -15 -20 -15 -14 0 -23 4 -19 10 4 6 11 8 16 5 5 -4 9 -1 9 4 0 16 7 13 14
-4z m3921 5 c3 -5 1 -10 -4 -10 -6 0 -11 5 -11 10 0 6 2 10 4 10 3 0 8 -4 11
-10z m-4210 -10 c3 -5 -1 -10 -9 -10 -9 0 -16 5 -16 10 0 6 4 10 9 10 6 0 13
-4 16 -10z m3752 -12 c-3 -8 -6 -5 -6 6 -1 11 2 17 5 13 3 -3 4 -12 1 -19z
m128 2 c3 -5 -1 -10 -10 -10 -9 0 -13 5 -10 10 3 6 8 10 10 10 2 0 7 -4 10
-10z m555 0 c0 -5 -5 -10 -11 -10 -5 0 -7 5 -4 10 3 6 8 10 11 10 2 0 4 -4 4
-10z m-117 -7 c-7 -2 -19 -2 -25 0 -7 3 -2 5 12 5 14 0 19 -2 13 -5z m-4273
-18 c0 -15 -25 -14 -40 1 -5 5 0 10 16 10 14 1 24 -4 24 -11z m280 -17 c0 -12
-25 -9 -38 4 -20 20 -14 27 13 15 14 -7 25 -15 25 -19z m3193 12 c-3 -11 -7
-20 -9 -20 -2 0 -4 9 -4 20 0 11 4 20 9 20 5 0 7 -9 4 -20z m97 16 c0 -2 -9
-6 -20 -9 -11 -3 -20 -1 -20 4 0 5 9 9 20 9 11 0 20 -2 20 -4z m960 -6 c-19
-13 -30 -13 -30 0 0 6 10 10 23 10 18 0 19 -2 7 -10z m-4350 -4 c0 -2 -7 -9
-15 -16 -12 -10 -15 -10 -15 4 0 9 7 16 15 16 8 0 15 -2 15 -4z m3565 -6 c3
-5 2 -10 -4 -10 -5 0 -13 5 -16 10 -3 6 -2 10 4 10 5 0 13 -4 16 -10z m-2835
-25 c0 -30 -15 -33 -30 -6 -14 27 -13 31 10 31 15 0 20 -7 20 -25z m-770 5 c0
-5 -2 -10 -4 -10 -3 0 -8 5 -11 10 -3 6 -1 10 4 10 6 0 11 -4 11 -10z m4300
-5 c0 -8 -6 -15 -14 -15 -20 0 -29 17 -14 23 22 9 28 7 28 -8z m-827 -2 c-7
-2 -21 -2 -30 0 -10 3 -4 5 12 5 17 0 24 -2 18 -5z m176 -24 c-7 -4 -17 -5
-22 -2 -5 3 -3 9 4 14 7 4 17 5 22 2 5 -3 3 -9 -4 -14z m-3559 -5 c0 -11 5
-14 18 -9 38 15 50 13 56 -8 5 -21 -21 -54 -33 -41 -3 3 1 9 8 13 22 14 3 31
-28 25 -23 -5 -29 -2 -34 15 -3 12 -1 21 4 21 5 0 9 -7 9 -16z m-30 -13 c0
-11 5 -21 12 -23 9 -3 9 -6 0 -12 -6 -4 -19 2 -29 14 -20 23 -38 27 -29 5 4
-11 -1 -15 -17 -14 -12 0 -16 3 -9 6 6 2 12 11 12 18 0 12 9 16 53 24 4 0 7
-8 7 -18z m162 -33 c-7 -28 -29 -51 -36 -39 -3 5 2 12 12 16 16 7 15 8 -3 15
-17 7 -17 9 -2 9 9 1 17 6 17 11 0 6 4 10 9 10 5 0 6 -10 3 -22z m3843 2 c3
-5 -3 -10 -14 -10 -12 0 -21 5 -21 10 0 6 6 10 14 10 8 0 18 -4 21 -10z
m-4031 -25 c4 -13 2 -14 -14 -5 -23 13 -26 20 -6 20 8 0 16 -7 20 -15z m826
-19 c0 -2 -7 -7 -16 -10 -8 -3 -12 -2 -9 4 6 10 25 14 25 6z m-695 -16 c-3 -5
-14 -10 -23 -10 -15 0 -15 2 -2 10 20 13 33 13 25 0z m129 4 c15 -6 15 -8 -1
-20 -10 -7 -22 -13 -28 -14 -5 0 -3 5 5 11 11 8 6 9 -20 4 l-35 -5 30 14 c17
8 31 15 32 15 1 1 9 -2 17 -5z m61 -44 c3 -5 1 -10 -4 -10 -6 0 -11 5 -11 10
0 6 2 10 4 10 3 0 8 -4 11 -10z m182 -6 c-3 -3 -12 -4 -19 -1 -8 3 -5 6 6 6
11 1 17 -2 13 -5z m3518 -4 c3 -5 1 -10 -4 -10 -6 0 -11 5 -11 10 0 6 2 10 4
10 3 0 8 -4 11 -10z m-3516 -17 c-4 -24 3 -43 15 -43 8 0 18 -4 21 -10 3 -5 0
-7 -8 -4 -11 4 -14 -2 -11 -23 2 -15 1 -20 -2 -10 -3 9 -10 15 -15 12 -5 -4
-9 -1 -9 5 0 7 -6 10 -13 7 -6 -2 -17 1 -24 8 -15 16 3 36 25 27 11 -4 14 -1
9 10 -3 9 -3 19 0 22 8 8 13 8 12 -1z m-269 -19 c0 -8 -5 -12 -10 -9 -6 4 -8
11 -5 16 9 14 15 11 15 -7z m47 -20 c-3 -3 -12 -4 -19 -1 -8 3 -5 6 6 6 11 1
17 -2 13 -5z m73 -9 c0 -2 -9 -9 -19 -15 -14 -7 -22 -7 -27 2 -4 6 -3 8 4 4 6
-3 13 -2 17 4 6 10 25 14 25 5z m-80 -19 c0 -11 -19 -15 -25 -6 -3 5 1 10 9
10 9 0 16 -2 16 -4z m3415 -6 c-3 -5 -12 -10 -18 -10 -7 0 -6 4 3 10 19 12 23
12 15 0z m-3246 -40 c6 -18 6 -28 1 -25 -6 4 -10 13 -10 21 0 8 -8 14 -17 14
-15 0 -16 2 -3 10 8 5 16 10 17 10 0 0 6 -14 12 -30z m-79 0 c0 -5 -7 -10 -16
-10 -8 0 -12 5 -9 10 3 6 10 10 16 10 5 0 9 -4 9 -10z m165 -10 c-3 -5 -12
-10 -18 -10 -7 0 -6 4 3 10 19 12 23 12 15 0z m2935 -10 c0 -5 -4 -10 -10 -10
-5 0 -10 5 -10 10 0 6 5 10 10 10 6 0 10 -4 10 -10z m-3085 -20 c-3 -5 -12 -7
-20 -3 -21 7 -19 13 6 13 11 0 18 -4 14 -10z m105 -15 c0 -8 -2 -15 -4 -15 -2
0 -6 7 -10 15 -3 8 -1 15 4 15 6 0 10 -7 10 -15z m74 -12 c-3 -64 -3 -64 -24
-53 -23 12 -16 35 7 26 12 -5 14 -1 9 17 -3 13 -3 27 1 31 9 9 9 9 7 -21z
m-41 11 c-7 -3 -9 -13 -6 -22 4 -15 3 -15 -6 -2 -15 22 -14 30 7 29 9 0 12 -3
5 -5z m-133 -8 c0 -3 -4 -8 -10 -11 -5 -3 -10 -1 -10 4 0 6 5 11 10 11 6 0 10
-2 10 -4z m3590 -37 c0 -5 -7 -9 -15 -9 -15 0 -20 12 -9 23 8 8 24 -1 24 -14z
m-3646 -22 c8 -12 7 -20 -2 -29 -11 -11 -12 -9 -6 6 5 13 3 17 -6 14 -25 -8
-20 -23 15 -44 24 -16 36 -19 44 -11 8 8 11 8 11 -2 0 -7 4 -9 10 -6 10 6 37
-47 52 -102 17 -66 16 -96 -5 -128 -26 -41 -35 -43 -43 -10 -3 14 -11 25 -16
25 -7 0 -9 16 -5 39 4 30 0 44 -14 60 -13 14 -15 21 -6 25 9 3 9 7 -1 14 -9 6
-10 15 -3 35 10 26 -2 40 -13 15 -3 -9 -9 -8 -20 5 -9 12 -21 17 -34 13 -25
-8 -38 10 -22 29 7 8 9 15 4 15 -5 1 1 9 14 20 13 11 20 24 16 31 -4 7 -2 10
6 7 8 -2 18 -12 24 -21z m175 -13 c3 -16 1 -17 -13 -5 -19 16 -21 34 -3 29 6
-3 14 -13 16 -24z m3131 7 c0 -6 -4 -13 -10 -16 -5 -3 -10 1 -10 9 0 9 5 16
10 16 6 0 10 -4 10 -9z m-3090 -50 c-12 -24 -30 -36 -30 -22 0 6 5 11 10 11 6
0 10 7 10 15 0 8 5 15 10 15 7 0 7 -6 0 -19z m3113 -22 c-6 -6 -17 -8 -24 -3
-9 5 -8 9 7 14 23 9 31 3 17 -11z m-3013 -8 c0 -9 -41 -23 -49 -16 -3 4 28 20
47 24 1 1 2 -3 2 -8z m3270 -21 c0 -5 -6 -10 -14 -10 -8 0 -18 5 -21 10 -3 6
3 10 14 10 12 0 21 -4 21 -10z m-3390 -4 c0 -3 -4 -8 -10 -11 -5 -3 -10 -1
-10 4 0 6 5 11 10 11 6 0 10 -2 10 -4z m126 -28 c-1 -13 5 -29 14 -36 8 -7 -4
-4 -28 8 -23 11 -47 18 -52 15 -5 -3 -11 -1 -14 4 -3 5 3 11 14 14 11 3 20 1
20 -5 0 -6 10 -3 23 5 12 9 23 16 23 16 1 1 1 -9 0 -21z m-316 -4 c0 -14 -3
-14 -15 -4 -8 7 -15 14 -15 16 0 2 7 4 15 4 8 0 15 -7 15 -16z m3573 -11 c-7
-2 -19 -2 -25 0 -7 3 -2 5 12 5 14 0 19 -2 13 -5z m-3333 -43 c-8 -5 -19 -10
-25 -10 -5 0 -3 5 5 10 8 5 20 10 25 10 6 0 3 -5 -5 -10z m-65 -50 c-3 -5 -11
-10 -16 -10 -6 0 -7 5 -4 10 3 6 11 10 16 10 6 0 7 -4 4 -10z m225 1 c-1 -15
-29 -41 -44 -41 -9 0 -16 -5 -16 -12 0 -6 -3 -8 -6 -5 -4 3 -15 2 -25 -3 -20
-11 -35 2 -23 21 4 7 9 8 13 1 4 -7 16 -5 36 3 17 7 23 14 14 14 -31 2 -15 26
18 27 18 0 33 -2 33 -5z m-128 -43 c-7 -7 -12 -8 -12 -2 0 14 12 26 19 19 2
-3 -1 -11 -7 -17z m-92 -2 c0 -3 -4 -8 -10 -11 -5 -3 -10 -1 -10 4 0 6 5 11
10 11 6 0 10 -2 10 -4z m145 -46 c3 -5 -1 -10 -10 -10 -9 0 -13 5 -10 10 3 6
8 10 10 10 2 0 7 -4 10 -10z m-271 -23 c3 4 16 7 28 8 l22 2 -22 -15 c-12 -8
-22 -21 -22 -28 0 -25 -18 -15 -29 17 -9 26 -8 29 3 20 7 -6 16 -8 20 -4z
m206 -1 c0 -3 -4 -8 -10 -11 -5 -3 -10 -1 -10 4 0 6 5 11 10 11 6 0 10 -2 10
-4z m30 -30 c0 -2 -8 -10 -17 -17 -16 -13 -17 -12 -4 4 13 16 21 21 21 13z
m-15 -86 c3 -5 1 -10 -4 -10 -6 0 -11 5 -11 10 0 6 2 10 4 10 3 0 8 -4 11 -10z
m25 -64 c0 -3 -4 -8 -10 -11 -5 -3 -10 -1 -10 4 0 6 5 11 10 11 6 0 10 -2 10
-4z m56 -21 c-14 -14 -16 -14 -16 -2 0 9 6 17 13 20 19 7 21 -1 3 -18z m14
-118 c0 -5 -4 -5 -10 -2 -5 3 -10 14 -10 23 0 15 2 15 10 2 5 -8 10 -19 10
-23z m-2460 -988 c0 -5 -7 -9 -15 -9 -15 0 -20 12 -9 23 8 8 24 -1 24 -14z m0
-29 c0 -5 -12 -10 -26 -10 -14 0 -23 4 -19 10 3 6 15 10 26 10 10 0 19 -4 19
-10z m1746 -27 c-10 -10 -19 5 -10 18 6 11 8 11 12 0 2 -7 1 -15 -2 -18z
m-1750 -8 c19 -14 19 -14 -2 -15 -18 0 -20 -5 -16 -27 4 -21 2 -25 -12 -20 -9
4 -16 2 -16 -3 0 -6 8 -10 17 -10 13 0 14 -3 5 -12 -7 -7 -12 -24 -12 -39 0
-40 -18 -45 -23 -7 -3 29 -4 28 -5 -9 -1 -24 -6 -43 -12 -43 -14 0 -12 31 5
80 8 23 12 46 9 52 -3 5 0 15 6 23 7 8 9 15 5 15 -4 0 -2 7 5 15 15 19 21 19
46 0z m-72 -202 c14 6 15 0 10 -36 -9 -55 -21 -87 -34 -87 -14 0 -13 13 3 29
10 10 8 15 -6 26 -13 9 -15 15 -7 20 7 5 10 20 6 39 -4 20 -3 26 3 17 5 -8 16
-11 25 -8z m-465 -229 c18 -13 28 -14 47 -5 19 8 24 8 24 -4 0 -9 10 -15 26
-15 20 0 25 -4 20 -16 -3 -8 1 -31 9 -50 8 -19 12 -41 8 -50 -3 -9 0 -14 7
-12 7 2 15 -3 17 -10 3 -7 -1 -10 -10 -6 -20 7 -46 -54 -27 -66 7 -4 9 -13 5
-19 -5 -9 -11 -7 -19 5 -9 12 -15 14 -20 5 -4 -6 -12 -9 -17 -5 -5 3 -16 0
-24 -6 -12 -10 -16 -9 -21 4 -7 19 -30 21 -37 4 -4 -10 -7 -10 -18 0 -7 6 -21
12 -31 12 -13 0 -18 8 -18 25 0 29 15 33 29 8 6 -10 11 -13 11 -6 0 6 -8 25
-17 42 -13 21 -23 29 -35 25 -10 -3 -18 -1 -18 5 0 6 10 11 22 11 20 0 21 1 4
13 -16 12 -16 14 -2 26 11 9 16 10 16 2 0 -6 5 -11 11 -11 6 0 8 7 5 16 -3 9
3 29 15 46 18 25 19 32 8 39 -8 5 -9 9 -4 9 6 0 21 -7 34 -16z m381 -174 c0
-5 -4 -10 -9 -10 -6 0 -13 5 -16 10 -3 6 1 10 9 10 9 0 16 -4 16 -10z m58
-107 c-6 -132 -28 -213 -54 -192 -8 7 -12 20 -8 31 3 10 0 25 -6 33 -20 24
-50 88 -50 107 0 9 -4 20 -10 23 -17 11 -11 25 15 37 30 14 28 30 -6 39 -19 6
-14 8 21 10 25 1 51 3 59 3 8 1 16 7 19 14 2 6 8 12 14 12 7 0 9 -40 6 -117z
m-111 51 c-3 -3 -12 -4 -19 -1 -8 3 -5 6 6 6 11 1 17 -2 13 -5z m-162 -24 c3
-5 1 -10 -4 -10 -6 0 -11 5 -11 10 0 6 2 10 4 10 3 0 8 -4 11 -10z m115 -250
c0 -5 -4 -10 -10 -10 -5 0 -10 5 -10 10 0 6 5 10 10 10 6 0 10 -4 10 -10z m21
-33 c-16 -20 6 -39 30 -26 15 8 21 3 35 -26 17 -37 17 -43 -6 -205 -9 -68 -34
-136 -49 -132 -15 3 -14 -15 2 -21 6 -3 3 -6 -8 -6 -15 -1 -21 6 -23 25 -1 14
-6 33 -12 44 -5 10 -7 26 -4 34 5 12 2 15 -10 10 -11 -4 -16 0 -16 14 0 11 -7
22 -15 26 -12 4 -13 11 -5 32 7 18 7 30 0 39 -6 7 -12 34 -14 61 -2 27 -9 50
-15 52 -6 2 -11 8 -11 13 0 6 4 8 9 4 5 -3 12 -1 16 4 3 6 12 8 19 5 8 -3 17
-1 21 5 3 7 -2 11 -14 11 -19 0 -41 19 -24 21 48 4 79 11 81 19 2 6 8 10 14
10 7 0 7 -4 -1 -13z m2199 -72 c0 -7 6 -15 13 -18 6 -2 9 -8 5 -12 -10 -11
-60 4 -53 15 3 6 -3 10 -14 10 -11 0 -23 5 -27 12 -5 7 -1 9 13 6 12 -3 27 -2
34 3 16 9 29 3 29 -16z m47 -27 c-3 -8 -6 -5 -6 6 -1 11 2 17 5 13 3 -3 4 -12
1 -19z m-57 -164 c0 -17 -22 -14 -28 4 -2 7 3 12 12 12 9 0 16 -7 16 -16z
m-2730 -123 c0 -5 -6 -12 -12 -15 -10 -5 -10 -7 -1 -12 7 -3 9 -12 6 -20 -3
-8 -1 -20 4 -27 5 -6 8 -21 7 -32 -2 -11 -5 -37 -7 -58 -4 -36 -17 -64 -17
-37 0 11 -3 11 -12 2 -9 -9 -8 -16 5 -30 21 -23 22 -68 3 -75 -11 -5 -14 -21
-12 -66 1 -34 -1 -61 -6 -61 -12 0 -10 -28 5 -50 10 -17 9 -22 -1 -29 -7 -4
-15 -28 -17 -51 -2 -34 -8 -46 -25 -52 -20 -7 -20 -9 -6 -24 14 -13 14 -17 2
-30 -8 -7 -16 -17 -18 -22 -5 -12 -72 -42 -78 -34 -3 4 -9 7 -15 8 -23 3 -55
17 -55 25 0 4 7 12 17 17 14 9 14 10 -5 16 -15 5 -22 16 -22 31 0 13 -4 27
-10 30 -15 9 -12 38 3 32 9 -3 13 7 14 35 1 22 8 48 16 57 8 9 17 24 20 33 4
12 12 15 23 11 14 -5 16 -2 11 17 -3 13 -2 32 4 42 7 13 6 18 -2 18 -7 0 -5 9
6 26 21 33 26 55 29 129 1 48 5 61 19 63 11 2 17 13 17 31 0 35 22 65 60 81
16 7 30 16 30 21 0 5 5 9 10 9 6 0 10 -4 10 -9z m1291 -47 c18 -22 7 -181 -17
-222 -18 -31 -22 -33 -64 -30 -41 3 -45 1 -43 -19 2 -13 -2 -23 -8 -23 -20 0
-94 71 -95 91 -1 17 3 19 28 14 23 -5 35 -2 53 15 13 12 28 19 33 16 5 -3 15
1 22 9 9 10 9 15 1 15 -6 0 -11 -5 -11 -12 0 -6 -2 -9 -5 -6 -3 3 1 18 9 34
26 51 46 102 46 116 0 19 36 20 51 2z m1559 -24 c-8 -5 -19 -10 -25 -10 -5 0
-3 5 5 10 8 5 20 10 25 10 6 0 3 -5 -5 -10z m-2311 -43 c11 -51 9 -159 -5
-204 -16 -55 -33 -70 -35 -30 0 12 -3 16 -6 10 -2 -7 -8 -13 -13 -13 -8 0 -24
57 -21 78 1 6 -6 12 -15 12 -10 0 -14 6 -11 14 3 7 1 18 -5 24 -7 7 -2 19 16
39 14 15 26 34 26 41 0 9 6 12 15 8 14 -5 19 4 16 31 -2 15 35 5 38 -10z
m2345 17 c31 -12 17 -30 -19 -26 -21 3 -35 10 -35 18 0 15 27 18 54 8z m0
-120 c7 -18 -13 -18 -36 0 -25 18 -22 24 6 19 14 -3 27 -11 30 -19z m56 -54
c0 -5 -11 -10 -24 -10 -14 0 -28 5 -31 10 -4 6 7 10 24 10 17 0 31 -4 31 -10z
m-40 -45 c11 -13 10 -14 -4 -9 -9 3 -16 10 -16 15 0 13 6 11 20 -6z m61 -88
c-8 -8 -11 -8 -11 0 0 6 -3 20 -7 30 -7 17 -6 17 11 0 14 -14 16 -21 7 -30z
m-2461 7 c0 -8 -4 -14 -10 -14 -5 0 -10 9 -10 21 0 11 5 17 10 14 6 -3 10 -13
10 -21z m2458 -51 c-10 -2 -26 -2 -35 0 -10 3 -2 5 17 5 19 0 27 -2 18 -5z
m-48 -34 c0 -6 9 -7 21 -4 18 6 20 4 15 -17 -3 -12 -3 -17 0 -10 8 17 25 15
18 -3 -9 -22 -24 -18 -62 13 -30 25 -31 28 -13 29 12 1 21 -3 21 -8z m-3170
-24 c0 -8 -4 -15 -8 -15 -5 0 -9 7 -9 15 0 8 4 15 9 15 4 0 8 -7 8 -15z m3260
-295 c0 -5 -2 -10 -4 -10 -3 0 -8 5 -11 10 -3 6 -1 10 4 10 6 0 11 -4 11 -10z
m28 -191 l27 -22 -25 7 c-14 4 -33 8 -42 7 -10 0 -18 5 -18 10 0 6 5 7 10 4 6
-3 10 -1 10 4 0 16 9 14 38 -10z m16 -115 c9 -24 2 -26 -12 -4 -7 11 -8 20 -3
20 5 0 12 -7 15 -16z m-377 -36 c-3 -7 -5 -2 -5 12 0 14 2 19 5 13 2 -7 2 -19
0 -25z m523 8 c0 -2 -9 -6 -20 -9 -11 -3 -18 -1 -14 4 5 9 34 13 34 5z m-154
-93 c-4 -9 1 -17 14 -20 11 -3 20 -11 20 -19 0 -10 -6 -11 -22 -5 -17 6 -23
16 -23 39 -1 17 3 28 8 25 5 -3 6 -12 3 -20z m90 -40 c-6 -15 -9 -15 -16 -3
-6 9 -5 17 3 22 16 10 21 2 13 -19z m48 -25 c-3 -5 -12 -2 -20 6 -20 21 -17
28 5 14 11 -7 17 -16 15 -20z"/>
<path d="M4258 6545 c-3 -3 -3 -16 -1 -29 6 -31 66 -93 72 -75 2 7 -1 15 -8
17 -6 2 -18 17 -27 34 -12 23 -13 33 -3 44 9 11 8 14 -8 14 -11 0 -22 -2 -25
-5z"/>
<path d="M4320 6360 c6 -11 13 -20 15 -20 3 0 5 9 5 20 0 11 -7 20 -15 20 -13
0 -14 -4 -5 -20z"/>
<path d="M4436 6261 c-3 -5 0 -14 8 -20 10 -9 15 -8 19 3 9 22 -15 37 -27 17z"/>
<path d="M4510 6199 c0 -5 5 -7 10 -4 6 3 10 8 10 11 0 2 -4 4 -10 4 -5 0 -10
-5 -10 -11z"/>
<path d="M4692 6160 c7 -10 14 -18 15 -16 6 6 -9 36 -18 36 -5 0 -4 -9 3 -20z"/>
<path d="M4730 6146 c0 -2 7 -6 15 -10 8 -3 15 -1 15 4 0 6 -7 10 -15 10 -8 0
-15 -2 -15 -4z"/>
<path d="M4750 6076 c0 -9 30 -14 35 -6 4 6 -3 10 -14 10 -12 0 -21 -2 -21 -4z"/>
<path d="M3850 6120 c0 -5 5 -10 11 -10 5 0 7 5 4 10 -3 6 -8 10 -11 10 -2 0
-4 -4 -4 -10z"/>
<path d="M5005 5750 c3 -5 10 -10 16 -10 5 0 9 5 9 10 0 6 -7 10 -16 10 -8 0
-12 -4 -9 -10z"/>
<path d="M5014 5704 c3 -9 6 -18 6 -20 0 -3 5 -2 11 2 8 4 9 -1 5 -17 -6 -24
-6 -24 5 -2 9 17 9 26 -1 38 -16 20 -34 19 -26 -1z"/>
<path d="M4948 5683 c11 -4 10 -8 -2 -22 -14 -15 -13 -17 7 -16 12 1 23 4 24
8 5 15 -10 37 -26 36 -11 0 -12 -2 -3 -6z"/>
<path d="M5057 5670 c-3 -11 -2 -20 3 -20 12 0 21 28 11 35 -5 2 -11 -4 -14
-15z"/>
<path d="M4656 5644 c-9 -22 -8 -23 14 -17 18 5 24 -3 22 -27 0 -3 8 -6 19 -6
26 0 24 7 -9 39 -33 31 -38 33 -46 11z"/>
<path d="M4772 5643 c-12 -12 -8 -17 11 -14 4 1 15 -6 24 -14 19 -19 24 -16
17 12 -7 26 -35 35 -52 16z"/>
<path d="M4873 5648 c2 -7 10 -13 18 -13 18 0 25 -35 8 -46 -19 -11 -4 -22 20
-14 12 3 21 13 21 21 0 8 -4 12 -10 9 -5 -3 -10 2 -10 12 0 11 -5 24 -12 31
-16 16 -41 15 -35 0z"/>
<path d="M5055 5623 c-9 -25 -6 -31 15 -26 16 4 19 2 14 -13 -4 -11 -11 -25
-17 -31 -13 -17 4 -16 27 2 11 8 14 15 7 15 -6 0 -11 6 -10 13 4 32 -2 54 -16
54 -8 0 -17 -7 -20 -14z"/>
<path d="M4585 5620 c-4 -6 -13 -9 -20 -8 -8 2 -14 0 -14 -4 -3 -26 0 -40 6
-35 3 4 13 -2 21 -14 10 -15 17 -18 25 -10 6 6 20 11 30 11 18 0 18 1 -2 32
-22 36 -36 44 -46 28z m19 -18 c3 -5 -1 -9 -9 -9 -8 0 -12 4 -9 9 3 4 7 8 9 8
2 0 6 -4 9 -8z"/>
<path d="M4976 5613 c-6 -14 -5 -15 5 -6 7 7 10 15 7 18 -3 3 -9 -2 -12 -12z"/>
<path d="M4756 5595 c7 -17 31 -27 38 -16 3 4 -6 13 -19 19 -19 9 -23 8 -19
-3z"/>
<path d="M4800 5555 c0 -8 5 -15 10 -15 6 0 10 7 10 15 0 8 -4 15 -10 15 -5 0
-10 -7 -10 -15z"/>
<path d="M4946 5544 c-8 -21 -8 -24 3 -24 12 0 22 28 12 35 -5 3 -12 -2 -15
-11z"/>
<path d="M4840 5546 c0 -2 7 -7 16 -10 8 -3 12 -2 9 4 -6 10 -25 14 -25 6z"/>
<path d="M4610 5529 c0 -5 5 -7 10 -4 6 3 10 8 10 11 0 2 -4 4 -10 4 -5 0 -10
-5 -10 -11z"/>
<path d="M4747 5496 c-7 -19 11 -32 24 -19 6 6 5 14 -4 22 -12 9 -16 8 -20 -3z"/>
<path d="M4689 5485 c19 -8 36 -13 39 -10 9 8 -3 15 -39 20 l-34 6 34 -16z"/>
<path d="M4750 5429 c0 -5 5 -7 10 -4 6 3 10 8 10 11 0 2 -4 4 -10 4 -5 0 -10
-5 -10 -11z"/>
<path d="M4630 5410 c0 -5 5 -12 10 -15 6 -4 8 -10 5 -15 -3 -5 -1 -11 4 -14
13 -8 22 9 15 27 -6 17 -34 31 -34 17z"/>
<path d="M4780 5404 c0 -8 4 -13 9 -10 5 4 11 0 14 -6 2 -7 8 -10 12 -6 9 8
-12 38 -26 38 -5 0 -9 -7 -9 -16z"/>
<path d="M5010 5410 c0 -5 5 -10 10 -10 6 0 10 5 10 10 0 6 -4 10 -10 10 -5 0
-10 -4 -10 -10z"/>
<path d="M4980 5373 c0 -8 5 -13 12 -11 18 6 21 25 3 25 -8 0 -15 -7 -15 -14z"/>
<path d="M5036 5377 c3 -10 9 -15 12 -12 3 3 0 11 -7 18 -10 9 -11 8 -5 -6z"/>
<path d="M4769 5363 c-11 -3 -15 -11 -12 -24 5 -18 6 -19 19 -2 13 17 15 17
29 -1 8 -10 12 -23 9 -27 -3 -5 -2 -9 3 -9 4 0 13 11 19 24 16 34 -16 53 -67
39z"/>
<path d="M5151 5354 c0 -11 3 -14 6 -6 3 7 2 16 -1 19 -3 4 -6 -2 -5 -13z"/>
<path d="M4597 5354 c-10 -10 30 -47 43 -39 8 5 6 13 -6 26 -18 20 -27 23 -37
13z"/>
<path d="M4690 5339 c0 -5 -8 -9 -17 -9 -29 0 -1 -18 40 -25 24 -5 37 -4 37 4
0 6 -7 11 -16 11 -9 0 -14 6 -11 13 3 8 -3 14 -14 14 -10 1 -19 -2 -19 -8z"/>
<path d="M4950 5325 c0 -8 4 -15 10 -15 5 0 7 7 4 15 -4 8 -8 15 -10 15 -2 0
-4 -7 -4 -15z"/>
<path d="M4995 5320 c3 -5 8 -10 11 -10 2 0 4 5 4 10 0 6 -5 10 -11 10 -5 0
-7 -4 -4 -10z"/>
<path d="M4540 5304 c0 -9 5 -14 12 -12 18 6 21 28 4 28 -9 0 -16 -7 -16 -16z"/>
<path d="M4690 5286 c0 -9 5 -16 10 -16 6 0 10 4 10 9 0 6 -4 13 -10 16 -5 3
-10 -1 -10 -9z"/>
<path d="M5048 5292 c-10 -2 -18 -7 -18 -12 0 -14 25 -29 36 -22 17 11 1 38
-18 34z"/>
<path d="M4908 5283 c7 -3 16 -2 19 1 4 3 -2 6 -13 5 -11 0 -14 -3 -6 -6z"/>
<path d="M4754 5248 c-4 -6 -2 -14 4 -16 6 -2 8 -10 5 -18 -6 -16 12 -19 22
-4 8 13 -3 50 -15 50 -5 0 -12 -5 -16 -12z"/>
<path d="M4930 5220 c6 -11 13 -20 15 -20 3 0 5 9 5 20 0 11 -7 20 -15 20 -13
0 -14 -4 -5 -20z"/>
<path d="M5071 5214 c0 -11 3 -14 6 -6 3 7 2 16 -1 19 -3 4 -6 -2 -5 -13z"/>
<path d="M4715 5200 c-4 -6 -13 -9 -21 -6 -15 6 -20 -19 -5 -28 10 -6 47 31
39 40 -3 3 -9 0 -13 -6z"/>
<path d="M4850 5190 c0 -5 5 -10 10 -10 6 0 10 5 10 10 0 6 -4 10 -10 10 -5 0
-10 -4 -10 -10z"/>
<path d="M4982 5184 c-8 -8 -22 -12 -32 -9 -17 5 -37 -21 -25 -33 3 -3 5 0 5
6 0 17 18 15 22 -2 2 -11 11 -7 31 14 16 15 25 30 20 33 -4 3 -14 -2 -21 -9z"/>
<path d="M4760 5165 c0 -14 5 -25 10 -25 6 0 10 11 10 25 0 14 -4 25 -10 25
-5 0 -10 -11 -10 -25z"/>
<path d="M4895 5180 c-3 -5 1 -10 9 -10 9 0 16 5 16 10 0 6 -4 10 -9 10 -6 0
-13 -4 -16 -10z"/>
<path d="M4865 5109 c-11 -16 -1 -19 13 -3 7 8 8 14 3 14 -5 0 -13 -5 -16 -11z"/>
<path d="M4821 5093 c2 -22 15 -41 25 -35 6 5 4 13 -8 25 -10 9 -18 14 -17 10z"/>
<path d="M5050 5065 c0 -11 28 -35 40 -35 6 0 10 6 8 13 -3 6 -9 12 -14 12 -5
0 -15 4 -21 8 -7 5 -13 5 -13 2z"/>
<path d="M5031 4961 c13 -11 26 -18 28 -15 7 7 -21 34 -36 34 -10 0 -8 -6 8
-19z"/>
<path d="M5690 4121 c0 -6 4 -13 10 -16 6 -3 7 1 4 9 -7 18 -14 21 -14 7z"/>
<path d="M3041 2174 c0 -11 3 -14 6 -6 3 7 2 16 -1 19 -3 4 -6 -2 -5 -13z"/>
<path d="M2955 2150 c-3 -5 -1 -10 4 -10 6 0 11 5 11 10 0 6 -2 10 -4 10 -3 0
-8 -4 -11 -10z"/>
<path d="M3051 2014 c0 -11 3 -14 6 -6 3 7 2 16 -1 19 -3 4 -6 -2 -5 -13z"/>
<path d="M2705 1250 c3 -5 8 -10 11 -10 2 0 4 5 4 10 0 6 -5 10 -11 10 -5 0
-7 -4 -4 -10z"/>
<path d="M2640 1229 c0 -5 5 -7 10 -4 6 3 10 8 10 11 0 2 -4 4 -10 4 -5 0 -10
-5 -10 -11z"/>
<path d="M2671 814 c0 -11 3 -14 6 -6 3 7 2 16 -1 19 -3 4 -6 -2 -5 -13z"/>
<path d="M6366 7245 c4 -8 10 -15 15 -15 5 0 9 7 9 15 0 8 -7 15 -15 15 -9 0
-12 -6 -9 -15z"/>
<path d="M6144 7238 c-8 -12 25 -48 43 -48 7 0 13 11 13 24 0 17 -7 25 -25 28
-14 3 -28 1 -31 -4z"/>
<path d="M6303 7242 c-34 -5 -28 -22 7 -22 17 0 30 4 30 9 0 14 -11 18 -37 13z"/>
<path d="M6233 7203 c9 -2 25 -2 35 0 9 3 1 5 -18 5 -19 0 -27 -2 -17 -5z"/>
<path d="M6348 7203 c7 -3 16 -2 19 1 4 3 -2 6 -13 5 -11 0 -14 -3 -6 -6z"/>
<path d="M6088 7193 c6 -2 18 -2 25 0 6 3 1 5 -13 5 -14 0 -19 -2 -12 -5z"/>
<path d="M6144 7175 c-2 -20 3 -25 22 -25 13 0 24 5 24 10 0 6 -7 10 -15 10
-8 0 -15 7 -15 15 0 26 -15 16 -16 -10z"/>
<path d="M6263 7193 c-58 -8 -35 -19 37 -19 39 0 70 4 70 8 0 5 -8 8 -17 8
-10 0 -27 2 -38 4 -11 2 -35 1 -52 -1z"/>
<path d="M6490 7180 c0 -5 7 -10 15 -10 8 0 15 5 15 10 0 6 -7 10 -15 10 -8 0
-15 -4 -15 -10z"/>
<path d="M6540 7181 c0 -11 31 -24 39 -16 3 3 -1 10 -9 15 -19 12 -30 12 -30
1z"/>
<path d="M6104 7145 c1 -18 7 -25 21 -25 14 0 16 3 7 8 -7 5 -10 16 -6 25 4
11 1 17 -9 17 -10 0 -14 -9 -13 -25z"/>
<path d="M6230 7138 c0 -4 15 -9 33 -9 17 -1 24 -3 14 -6 -16 -4 -15 -6 5 -24
16 -14 19 -22 10 -26 -7 -2 -19 -12 -28 -21 -14 -14 -14 -16 8 -28 12 -7 19
-14 13 -14 -5 0 -2 -7 9 -15 10 -7 15 -18 12 -23 -8 -13 46 -23 59 -11 5 5 -1
9 -18 9 -15 0 -27 5 -27 10 0 6 10 10 23 10 21 1 57 21 57 33 0 3 -8 7 -17 9
-10 2 8 4 39 4 39 -1 58 -5 58 -13 0 -7 -6 -13 -14 -13 -7 0 -19 -7 -26 -15
-10 -12 -10 -15 4 -15 9 0 25 -9 36 -20 11 -11 32 -20 47 -20 26 0 26 -1 10
-17 -16 -16 -18 -15 -45 10 -29 27 -52 35 -52 17 0 -5 5 -10 10 -10 6 0 10 -7
10 -16 0 -20 -29 -49 -38 -39 -4 4 -1 10 6 12 26 9 2 63 -28 63 -20 0 -44 -30
-32 -42 6 -6 12 -6 16 1 12 20 27 12 21 -11 -4 -18 1 -27 26 -40 33 -19 99
-24 99 -8 0 6 -16 10 -36 10 -22 0 -33 4 -29 11 4 6 19 7 35 4 16 -4 38 -2 49
4 13 7 22 8 26 1 3 -5 -3 -10 -14 -10 -18 0 -21 -6 -21 -40 0 -28 -4 -40 -14
-40 -29 0 -27 -20 3 -26 44 -9 38 -24 -9 -24 -22 0 -40 4 -40 10 0 5 -8 6 -17
3 -14 -6 -9 -10 22 -19 22 -7 56 -13 75 -14 19 -1 27 -4 18 -7 -10 -2 -18 -11
-18 -19 0 -17 46 -48 59 -39 6 3 27 -1 46 -11 19 -9 42 -13 51 -10 11 4 18 -1
21 -14 3 -11 12 -20 19 -20 8 0 14 -4 14 -10 0 -5 -7 -10 -15 -10 -20 0 -19
-26 1 -34 9 -3 31 -6 49 -6 33 0 33 1 33 45 -1 31 -5 45 -15 45 -9 0 -13 13
-13 40 0 48 13 52 27 8 l10 -33 12 26 c10 20 10 32 2 48 -14 25 -29 26 -67 6
-39 -20 -61 -20 -44 0 7 8 21 15 31 15 11 0 19 5 19 10 0 6 -7 10 -15 10 -27
0 -16 20 13 21 l27 1 -30 7 -30 7 33 8 c18 4 30 12 26 17 -6 10 -34 5 -71 -13
-12 -6 -20 -15 -17 -20 3 -4 0 -8 -5 -8 -6 0 -11 4 -11 9 0 5 -9 12 -20 16
-12 4 -19 14 -17 27 2 16 -6 23 -38 32 -30 9 -36 13 -22 19 9 3 17 2 17 -3 0
-6 5 -10 10 -10 12 0 13 37 1 44 -4 3 -17 -1 -27 -9 -29 -22 -53 -18 -65 11
-11 31 -13 28 26 43 l30 11 -28 -5 c-25 -5 -28 -3 -22 15 5 15 3 19 -10 14
-11 -5 -18 0 -21 13 -4 14 -19 22 -52 29 -52 10 -64 34 -22 45 23 6 23 7 3 8
-12 1 -34 -4 -49 -10 -28 -10 -28 -10 -9 10 18 21 18 21 -6 21 -18 0 -20 3
-10 9 11 7 10 10 -5 14 -29 8 -154 4 -154 -5z m130 -83 c0 -9 -9 -15 -25 -15
-18 0 -23 4 -19 15 4 8 15 15 25 15 10 0 19 -7 19 -15z m-10 -35 c0 -5 -7 -10
-15 -10 -8 0 -15 5 -15 10 0 6 7 10 15 10 8 0 15 -4 15 -10z m180 -45 c0 -8
-7 -15 -15 -15 -16 0 -20 12 -8 23 11 12 23 8 23 -8z m60 -114 c0 -5 -7 -11
-15 -15 -9 -3 -15 0 -15 9 0 8 7 15 15 15 8 0 15 -4 15 -9z m69 -41 c-7 -5
-19 -6 -26 -3 -11 5 -12 8 -2 13 7 5 19 6 26 3 11 -5 12 -8 2 -13z m33 -32
c-9 -9 -15 -9 -24 0 -9 9 -7 12 12 12 19 0 21 -3 12 -12z m53 -28 c3 -5 -1
-10 -9 -10 -9 0 -16 5 -16 10 0 6 4 10 9 10 6 0 13 -4 16 -10z m-90 -30 c3 -5
1 -10 -4 -10 -6 0 -11 5 -11 10 0 6 2 10 4 10 3 0 8 -4 11 -10z m65 0 c0 -5
-5 -10 -11 -10 -5 0 -7 5 -4 10 3 6 8 10 11 10 2 0 4 -4 4 -10z m90 -101 c0
-5 -4 -9 -10 -9 -5 0 -10 7 -10 16 0 8 5 12 10 9 6 -3 10 -10 10 -16z m0 -59
c0 -5 -4 -10 -10 -10 -5 0 -10 5 -10 10 0 6 5 10 10 10 6 0 10 -4 10 -10z"/>
<path d="M6490 7140 c0 -5 7 -10 15 -10 8 0 15 5 15 10 0 6 -7 10 -15 10 -8 0
-15 -4 -15 -10z"/>
<path d="M6176 7116 c3 -8 1 -17 -5 -21 -6 -3 -11 -13 -11 -21 0 -10 9 -5 24
13 25 29 25 43 1 43 -8 0 -12 -6 -9 -14z"/>
<path d="M6608 7123 c-10 -2 -18 -11 -18 -19 0 -20 13 -17 33 6 17 20 16 21
-15 13z"/>
<path d="M6524 7105 c-18 -14 -18 -14 9 -15 17 0 27 5 27 15 0 19 -11 19 -36
0z"/>
<path d="M6080 7100 c0 -5 5 -10 11 -10 5 0 7 5 4 10 -3 6 -8 10 -11 10 -2 0
-4 -4 -4 -10z"/>
<path d="M6227 7096 c-4 -10 -5 -21 -2 -24 9 -9 17 6 13 25 -3 17 -4 17 -11
-1z"/>
<path d="M6188 7033 c7 -3 16 -2 19 1 4 3 -2 6 -13 5 -11 0 -14 -3 -6 -6z"/>
<path d="M4250 7005 c0 -8 -9 -15 -20 -15 -11 0 -20 4 -20 10 0 5 -7 7 -15 3
-14 -5 -14 -8 2 -23 12 -11 20 -13 25 -7 4 8 15 7 33 -1 35 -16 40 -15 24 5
-12 15 -12 16 6 9 32 -12 37 -12 42 2 3 7 -5 12 -21 12 -13 0 -28 5 -31 10 -9
15 -25 12 -25 -5z"/>
<path d="M4010 6985 c-10 -12 -10 -15 4 -15 9 0 16 7 16 15 0 8 -2 15 -4 15
-2 0 -9 -7 -16 -15z"/>
<path d="M4125 6980 c3 -5 8 -10 11 -10 2 0 4 5 4 10 0 6 -5 10 -11 10 -5 0
-7 -4 -4 -10z"/>
<path d="M4378 6983 c7 -3 16 -2 19 1 4 3 -2 6 -13 5 -11 0 -14 -3 -6 -6z"/>
<path d="M6680 6980 c0 -5 5 -10 10 -10 6 0 10 5 10 10 0 6 -4 10 -10 10 -5 0
-10 -4 -10 -10z"/>
<path d="M4540 6971 c0 -8 -7 -11 -15 -7 -10 4 -15 -1 -15 -15 0 -20 0 -20 22
1 12 11 18 23 15 27 -4 3 -7 1 -7 -6z"/>
<path d="M6600 6949 c-30 -16 -32 -19 -12 -19 28 0 62 17 62 30 0 13 -8 11
-50 -11z"/>
<path d="M6698 6953 c7 -3 16 -2 19 1 4 3 -2 6 -13 5 -11 0 -14 -3 -6 -6z"/>
<path d="M6818 6953 c7 -3 16 -2 19 1 4 3 -2 6 -13 5 -11 0 -14 -3 -6 -6z"/>
<path d="M6928 6948 c-6 -17 21 -58 38 -58 19 0 18 19 -1 26 -27 11 -16 21 18
16 41 -6 25 13 -19 23 -22 4 -33 2 -36 -7z"/>
<path d="M7053 6941 c-13 -20 -8 -31 14 -31 7 0 13 11 13 25 0 30 -11 32 -27
6z"/>
<path d="M3953 6939 c-15 -6 -14 -8 7 -8 14 0 32 4 40 9 12 7 10 9 -7 7 -12 0
-30 -4 -40 -8z"/>
<path d="M6306 6931 c-3 -5 1 -11 9 -14 9 -4 12 -1 8 9 -6 16 -10 17 -17 5z"/>
<path d="M6680 6930 c0 -5 5 -10 10 -10 6 0 10 5 10 10 0 6 -4 10 -10 10 -5 0
-10 -4 -10 -10z"/>
<path d="M6870 6900 c0 -5 5 -10 10 -10 6 0 10 5 10 10 0 6 -4 10 -10 10 -5 0
-10 -4 -10 -10z"/>
<path d="M7191 6894 c0 -11 3 -14 6 -6 3 7 2 16 -1 19 -3 4 -6 -2 -5 -13z"/>
<path d="M6340 6890 c0 -5 5 -10 11 -10 5 0 7 5 4 10 -3 6 -8 10 -11 10 -2 0
-4 -4 -4 -10z"/>
<path d="M6998 6885 c-2 -3 -19 -7 -37 -9 -35 -4 -68 -26 -39 -26 9 0 19 6 21
13 4 9 8 9 15 -2 8 -11 10 -11 14 0 4 11 10 10 27 -5 21 -19 21 -19 19 7 -2
26 -9 33 -20 22z"/>
<path d="M6811 6870 c-21 -12 36 -22 59 -10 11 6 20 12 20 13 0 6 -68 4 -79
-3z"/>
<path d="M6355 6859 c-4 -5 5 -9 19 -9 14 0 35 -9 46 -20 22 -22 110 -29 110
-9 0 6 -12 9 -27 8 -30 -3 -103 18 -103 30 0 10 -39 11 -45 0z"/>
<path d="M6733 6853 c9 -2 23 -2 30 0 6 3 -1 5 -18 5 -16 0 -22 -2 -12 -5z"/>
<path d="M7265 6830 c-3 -5 -1 -10 4 -10 6 0 11 5 11 10 0 6 -2 10 -4 10 -3 0
-8 -4 -11 -10z"/>
<path d="M3857 6824 c-8 -8 1 -24 12 -24 4 0 8 7 8 15 0 16 -9 20 -20 9z"/>
<path d="M6848 6803 c7 -3 16 -2 19 1 4 3 -2 6 -13 5 -11 0 -14 -3 -6 -6z"/>
<path d="M6906 6788 c-20 -28 -20 -38 -1 -38 9 0 15 9 15 24 0 13 6 27 13 29
9 4 9 6 0 6 -6 1 -19 -9 -27 -21z"/>
<path d="M7355 6800 c-3 -6 1 -7 9 -4 18 7 21 14 7 14 -6 0 -13 -4 -16 -10z"/>
<path d="M3455 6780 c3 -5 11 -10 16 -10 6 0 7 5 4 10 -3 6 -11 10 -16 10 -6
0 -7 -4 -4 -10z"/>
<path d="M3791 6771 c13 -11 26 -17 29 -14 6 6 -30 33 -43 33 -5 0 1 -9 14
-19z"/>
<path d="M4920 6762 c0 -12 19 -26 26 -19 2 2 -2 10 -11 17 -9 8 -15 8 -15 2z"/>
<path d="M4961 6765 c1 -19 18 -51 18 -35 0 8 -4 22 -9 30 -5 8 -9 11 -9 5z"/>
<path d="M3570 6719 c0 -5 5 -7 10 -4 6 3 10 8 10 11 0 2 -4 4 -10 4 -5 0 -10
-5 -10 -11z"/>
<path d="M3725 6670 c-3 -5 1 -10 9 -10 9 0 16 5 16 10 0 6 -4 10 -9 10 -6 0
-13 -4 -16 -10z"/>
<path d="M6547 6667 c-9 -23 -1 -37 21 -37 11 0 13 3 6 8 -7 4 -13 16 -16 27
-3 19 -4 19 -11 2z"/>
<path d="M3540 6655 c0 -8 8 -11 20 -8 11 3 20 7 20 8 0 1 -9 5 -20 8 -12 3
-20 0 -20 -8z"/>
<path d="M3657 6646 c-5 -14 10 -36 25 -36 4 0 8 5 8 10 0 6 -7 10 -15 10 -9
0 -12 6 -9 15 4 8 4 15 1 15 -3 0 -7 -6 -10 -14z"/>
<path d="M6871 6641 c-8 -5 -9 -11 -3 -15 5 -3 12 1 16 9 6 17 6 18 -13 6z"/>
<path d="M6648 6633 c6 -2 18 -2 25 0 6 3 1 5 -13 5 -14 0 -19 -2 -12 -5z"/>
<path d="M5010 6620 c0 -6 11 -15 25 -20 14 -5 25 -14 25 -19 0 -9 41 -23 48
-17 4 5 -79 66 -90 66 -4 0 -8 -5 -8 -10z"/>
<path d="M6595 6619 c-10 -15 3 -25 16 -12 7 7 7 13 1 17 -6 3 -14 1 -17 -5z"/>
<path d="M6692 6618 c6 -16 36 -34 44 -26 8 9 -20 38 -36 38 -6 0 -10 -5 -8
-12z"/>
<path d="M6640 6592 c0 -13 46 -35 61 -30 8 3 -1 12 -20 21 -39 20 -41 20 -41
9z"/>
<path d="M6558 6583 c7 -3 16 -2 19 1 4 3 -2 6 -13 5 -11 0 -14 -3 -6 -6z"/>
<path d="M3751 6564 c14 -17 32 -19 27 -2 -2 6 -12 12 -22 14 -14 2 -15 0 -5
-12z"/>
<path d="M6865 6570 c-3 -5 -1 -10 4 -10 6 0 11 5 11 10 0 6 -2 10 -4 10 -3 0
-8 -4 -11 -10z"/>
<path d="M3647 6548 c5 -28 29 -55 39 -45 3 3 1 12 -5 19 -7 7 -18 22 -25 33
-13 18 -14 18 -9 -7z"/>
<path d="M6598 6563 c7 -3 16 -2 19 1 4 3 -2 6 -13 5 -11 0 -14 -3 -6 -6z"/>
<path d="M6717 6553 c-3 -5 -2 -15 2 -22 5 -7 11 -9 14 -4 3 5 2 15 -2 22 -5
7 -11 9 -14 4z"/>
<path d="M3626 6537 c3 -10 9 -15 12 -12 3 3 0 11 -7 18 -10 9 -11 8 -5 -6z"/>
<path d="M6620 6537 c0 -15 59 -16 63 -2 1 6 -13 11 -30 12 -19 1 -33 -4 -33
-10z"/>
<path d="M3723 6522 c-13 -2 -23 -8 -23 -13 0 -12 47 -12 55 0 7 13 -5 18 -32
13z"/>
<path d="M5080 6522 c1 -12 40 -55 46 -49 8 8 -13 44 -31 51 -8 3 -15 2 -15
-2z"/>
<path d="M6763 6518 c1 -9 -9 -12 -30 -10 -19 2 -33 -1 -33 -7 0 -6 15 -11 33
-11 24 0 28 -3 17 -10 -11 -7 -12 -12 -3 -21 8 -8 14 -6 22 10 6 11 10 26 9
33 -2 9 7 12 29 10 17 -2 34 2 38 7 4 7 -10 11 -39 11 -32 0 -45 -4 -43 -12z"/>
<path d="M6858 6493 c7 -3 16 -2 19 1 4 3 -2 6 -13 5 -11 0 -14 -3 -6 -6z"/>
<path d="M5160 6466 c0 -9 5 -16 10 -16 6 0 10 4 10 9 0 6 -4 13 -10 16 -5 3
-10 -1 -10 -9z"/>
<path d="M6880 6450 c0 -5 7 -10 15 -10 8 0 15 5 15 10 0 6 -7 10 -15 10 -8 0
-15 -4 -15 -10z"/>
<path d="M6848 6403 c6 -2 18 -2 25 0 6 3 1 5 -13 5 -14 0 -19 -2 -12 -5z"/>
<path d="M6970 6385 c0 -9 -6 -12 -15 -9 -8 4 -15 2 -15 -4 0 -19 28 -20 45
-2 10 11 22 17 26 14 5 -3 9 0 9 5 0 6 -11 11 -25 11 -15 0 -25 -6 -25 -15z"/>
<path d="M6878 6363 c7 -3 16 -2 19 1 4 3 -2 6 -13 5 -11 0 -14 -3 -6 -6z"/>
<path d="M8101 6254 c0 -11 3 -14 6 -6 3 7 2 16 -1 19 -3 4 -6 -2 -5 -13z"/>
<path d="M5328 5943 c7 -3 16 -2 19 1 4 3 -2 6 -13 5 -11 0 -14 -3 -6 -6z"/>
<path d="M5640 5880 c0 -5 5 -10 11 -10 5 0 7 5 4 10 -3 6 -8 10 -11 10 -2 0
-4 -4 -4 -10z"/>
<path d="M8237 5870 c4 -16 8 -18 19 -9 16 13 10 29 -11 29 -8 0 -11 -7 -8
-20z"/>
<path d="M5256 5858 c3 -5 12 -7 20 -4 17 7 44 -3 44 -16 0 -5 -4 -6 -10 -3
-5 3 -10 2 -10 -3 0 -15 28 -23 36 -11 10 17 -22 43 -56 45 -17 1 -27 -2 -24
-8z"/>
<path d="M5440 5860 l-25 -7 25 -11 c14 -6 18 -11 10 -11 -9 -1 -20 3 -25 8
-22 20 -52 22 -57 3 -4 -15 16 -45 32 -48 3 0 12 -3 20 -7 30 -12 86 -26 127
-32 24 -4 61 -15 82 -26 22 -10 44 -19 49 -19 5 0 21 -9 36 -21 l26 -21 -49
-44 c-87 -78 -119 -149 -99 -218 7 -23 12 -47 13 -54 0 -7 7 -17 15 -22 8 -5
11 -12 7 -16 -6 -6 25 -55 58 -90 5 -6 28 -32 50 -58 22 -25 48 -46 58 -46 10
0 20 -7 23 -15 6 -15 46 -30 111 -40 63 -10 101 17 188 131 14 18 14 17 16
-11 1 -16 2 -36 2 -42 -1 -7 3 -13 8 -13 5 0 9 -9 9 -20 0 -11 4 -20 8 -20 5
0 21 -22 36 -49 19 -36 23 -50 14 -54 -9 -2 -1 -16 20 -38 29 -30 31 -35 16
-46 -16 -12 -12 -33 7 -33 6 0 7 5 4 10 -3 6 1 10 9 10 8 0 18 -5 22 -12 5 -7
2 -8 -7 -3 -8 5 -3 -4 10 -18 25 -27 37 -35 26 -17 -3 6 -3 10 2 10 4 0 9 28
10 63 1 51 -2 66 -19 85 l-21 22 21 0 c12 0 22 5 22 12 0 9 3 9 12 0 24 -24
26 -11 8 39 -15 40 -17 56 -8 72 9 17 8 19 -6 14 -9 -4 -16 -2 -16 3 0 6 5 10
10 10 6 0 10 5 10 11 0 5 -4 8 -9 5 -5 -4 -7 2 -4 12 2 10 -3 24 -11 31 -11 9
-16 10 -16 2 0 -6 -4 -11 -10 -11 -5 0 -10 7 -10 15 0 8 -9 23 -20 32 -26 22
-26 37 0 21 16 -10 23 -9 44 11 13 13 30 20 36 16 8 -5 10 1 8 19 -2 15 -7 25
-13 24 -5 -1 -9 -8 -7 -14 4 -19 -19 -28 -30 -13 -7 10 -7 7 -3 -8 4 -14 2
-23 -4 -23 -14 0 -14 37 -1 45 11 7 8 40 -5 52 -4 5 -6 -1 -3 -13 3 -13 0 -21
-8 -21 -7 0 -11 4 -8 9 3 4 0 8 -5 8 -6 0 -11 5 -11 11 0 5 5 7 12 3 8 -5 9
-2 4 12 -4 10 -8 23 -9 29 -1 5 -11 18 -22 28 -17 16 -17 18 -2 13 27 -8 45 3
40 25 -3 11 -10 22 -15 25 -6 4 -7 -2 -3 -17 6 -18 0 -15 -24 15 -18 22 -45
48 -61 57 -16 10 -38 27 -50 39 -11 11 -26 20 -34 20 -8 0 -13 8 -12 18 1 11
-6 16 -18 15 -10 -1 -30 10 -45 23 -14 13 -28 24 -31 25 -3 0 -16 3 -30 5 -14
2 -37 6 -53 7 -15 2 -33 9 -39 15 -16 16 -31 15 -22 0 4 -7 -1 -6 -12 3 -12
11 -35 16 -66 14 -26 -1 -45 2 -42 7 3 4 -4 8 -16 8 -11 0 -23 7 -27 16 -5 14
-8 15 -17 3 -13 -16 -36 -23 -36 -11 0 4 6 14 13 21 10 11 7 13 -15 9 -16 -3
-28 -1 -28 5 0 5 -9 7 -19 4 -11 -2 -38 6 -61 19 -23 13 -43 24 -44 23 0 -1
-12 -4 -26 -9z m360 -120 c8 -5 11 -10 5 -10 -5 0 -17 5 -25 10 -8 5 -10 10
-5 10 6 0 17 -5 25 -10z m133 -56 c-3 -9 -9 -12 -12 -7 -3 4 -10 11 -15 16 -5
4 0 7 12 7 15 0 20 -4 15 -16z m45 -111 c7 -7 19 -13 25 -14 16 -1 82 -78 74
-86 -4 -3 -12 -2 -19 4 -17 13 -56 14 -63 2 -4 -5 -13 -9 -22 -9 -12 0 -11 5
7 20 20 17 20 20 6 26 -9 3 -16 15 -16 25 0 10 -7 19 -15 19 -8 0 -19 9 -24
19 -9 17 -8 18 12 13 12 -3 28 -12 35 -19z m227 -61 c-3 -3 -16 5 -28 17 l-22
23 28 -17 c15 -10 25 -20 22 -23z m35 -355 c0 -5 -4 -5 -10 -2 -5 3 -10 14
-10 23 0 15 2 15 10 2 5 -8 10 -19 10 -23z m50 -9 c0 -14 -19 1 -31 25 -12 22
-12 22 10 3 11 -11 21 -23 21 -28z m39 -72 c6 -7 5 -17 -2 -27 -10 -14 -14
-11 -28 16 -14 30 -14 32 3 27 9 -2 22 -9 27 -16z"/>
<path d="M5573 5862 c-24 -4 -32 -22 -10 -22 15 0 43 18 37 22 -3 2 -15 2 -27
0z"/>
<path d="M6080 5866 c0 -2 8 -10 18 -17 15 -13 16 -12 3 4 -13 16 -21 21 -21
13z"/>
<path d="M5805 5850 c3 -5 11 -10 16 -10 6 0 7 5 4 10 -3 6 -11 10 -16 10 -6
0 -7 -4 -4 -10z"/>
<path d="M5750 5815 c26 -35 54 -48 43 -20 -3 9 -8 13 -11 10 -3 -3 -15 3 -26
12 -20 18 -20 17 -6 -2z"/>
<path d="M5260 5741 c0 -6 5 -11 11 -11 5 0 7 -4 4 -10 -3 -5 -1 -10 4 -10 16
0 13 16 -4 30 -10 9 -15 9 -15 1z"/>
<path d="M5360 5690 c0 -5 7 -10 16 -10 8 0 12 5 9 10 -3 6 -10 10 -16 10 -5
0 -9 -4 -9 -10z"/>
<path d="M5348 5663 c7 -3 16 -2 19 1 4 3 -2 6 -13 5 -11 0 -14 -3 -6 -6z"/>
<path d="M8242 5641 c-11 -7 -10 -10 3 -15 26 -10 35 -7 35 9 0 17 -18 19 -38
6z"/>
<path d="M5344 5621 c4 -5 0 -12 -6 -14 -7 -3 -3 -6 9 -6 27 -1 39 15 17 23
-22 8 -26 8 -20 -3z"/>
<path d="M8270 5560 c0 -5 11 -10 25 -10 14 0 25 5 25 10 0 6 -11 10 -25 10
-14 0 -25 -4 -25 -10z"/>
<path d="M5470 5520 c0 -5 5 -10 10 -10 6 0 10 5 10 10 0 6 -4 10 -10 10 -5 0
-10 -4 -10 -10z"/>
<path d="M8285 5520 c-16 -7 -14 -9 13 -7 17 1 32 5 32 9 0 10 -19 9 -45 -2z"/>
<path d="M5530 5371 c0 -5 7 -11 14 -14 10 -4 13 -1 9 9 -6 15 -23 19 -23 5z"/>
<path d="M6325 5292 c-15 -11 -12 -37 7 -55 15 -15 16 -14 21 8 2 14 1 25 -4
25 -4 0 -9 7 -11 15 -2 8 -7 11 -13 7z"/>
<path d="M8477 5263 c-4 -3 -7 -11 -7 -17 0 -6 5 -5 12 2 6 6 9 14 7 17 -3 3
-9 2 -12 -2z"/>
<path d="M8490 5150 c0 -19 20 -27 33 -13 8 7 -11 33 -24 33 -5 0 -9 -9 -9
-20z"/>
<path d="M8370 5130 c-12 -8 -11 -10 8 -10 12 0 22 5 22 10 0 13 -11 13 -30 0z"/>
<path d="M8328 5123 c7 -3 16 -2 19 1 4 3 -2 6 -13 5 -11 0 -14 -3 -6 -6z"/>
<path d="M8392 5083 c-26 -10 -2 -18 45 -14 40 4 44 5 23 12 -30 8 -50 9 -68
2z"/>
<path d="M9930 5050 c0 -5 5 -10 10 -10 6 0 10 5 10 10 0 6 -4 10 -10 10 -5 0
-10 -4 -10 -10z"/>
<path d="M8348 5043 c6 -2 18 -2 25 0 6 3 1 5 -13 5 -14 0 -19 -2 -12 -5z"/>
<path d="M9858 5038 c-14 -11 -14 -13 9 -25 30 -16 47 -7 18 9 -19 11 -19 11
0 19 13 5 14 8 5 8 -8 0 -22 -5 -32 -11z"/>
<path d="M8408 5033 c6 -2 18 -2 25 0 6 3 1 5 -13 5 -14 0 -19 -2 -12 -5z"/>
<path d="M8398 4993 c7 -3 16 -2 19 1 4 3 -2 6 -13 5 -11 0 -14 -3 -6 -6z"/>
<path d="M9840 4980 c0 -5 7 -10 15 -10 8 0 15 5 15 10 0 6 -7 10 -15 10 -8 0
-15 -4 -15 -10z"/>
<path d="M9935 4970 c3 -5 8 -10 11 -10 2 0 4 5 4 10 0 6 -5 10 -11 10 -5 0
-7 -4 -4 -10z"/>
<path d="M8450 4945 c0 -8 5 -15 10 -15 6 0 10 7 10 15 0 8 -4 15 -10 15 -5 0
-10 -7 -10 -15z"/>
<path d="M8480 4949 c0 -5 5 -7 10 -4 6 3 10 8 10 11 0 2 -4 4 -10 4 -5 0 -10
-5 -10 -11z"/>
<path d="M9788 4934 c-14 -14 -20 -15 -32 -5 -28 23 -39 1 -12 -25 24 -25 24
-25 55 -6 26 16 29 21 18 36 -11 16 -13 16 -29 0z"/>
<path d="M9855 4890 c-3 -5 3 -10 15 -10 12 0 18 5 15 10 -3 6 -10 10 -15 10
-5 0 -12 -4 -15 -10z"/>
<path d="M9922 4860 c0 -14 2 -19 5 -12 2 6 2 18 0 25 -3 6 -5 1 -5 -13z"/>
<path d="M9807 4843 c-11 -10 -8 -43 3 -43 6 0 10 11 10 25 0 26 -2 29 -13 18z"/>
<path d="M9985 4830 c3 -5 8 -10 11 -10 2 0 4 5 4 10 0 6 -5 10 -11 10 -5 0
-7 -4 -4 -10z"/>
<path d="M6148 4818 c-7 -18 2 -39 13 -32 12 7 12 44 0 44 -5 0 -11 -6 -13
-12z"/>
<path d="M9883 4803 c-24 -2 -43 -9 -43 -15 0 -5 7 -7 16 -4 9 3 38 6 65 6 31
0 48 4 44 10 -3 6 -14 9 -23 8 -9 -1 -36 -3 -59 -5z"/>
<path d="M6230 4781 c0 -5 -11 -12 -25 -15 -14 -4 -25 -11 -25 -17 0 -6 7 -8
16 -5 9 3 20 6 24 6 5 0 14 9 20 20 7 14 7 20 0 20 -5 0 -10 -4 -10 -9z"/>
<path d="M9795 4780 c-4 -6 -1 -18 6 -27 11 -13 10 -17 -6 -29 -10 -8 -15 -17
-10 -21 4 -5 10 -2 12 5 3 6 13 12 23 12 10 0 21 -6 23 -12 4 -10 6 -10 6 0 1
8 23 12 76 12 41 0 75 3 75 8 0 4 -35 6 -79 4 l-78 -4 -14 31 c-15 33 -24 38
-34 21z"/>
<path d="M9920 4766 c0 -9 5 -16 10 -16 6 0 10 4 10 9 0 6 -4 13 -10 16 -5 3
-10 -1 -10 -9z"/>
<path d="M8495 4760 c-3 -5 1 -10 9 -10 9 0 16 5 16 10 0 6 -4 10 -9 10 -6 0
-13 -4 -16 -10z"/>
<path d="M9850 4760 c0 -5 11 -10 25 -10 14 0 25 5 25 10 0 6 -11 10 -25 10
-14 0 -25 -4 -25 -10z"/>
<path d="M9476 4751 c-4 -7 -5 -15 -2 -18 9 -9 19 4 14 18 -4 11 -6 11 -12 0z"/>
<path d="M9591 4744 c0 -11 3 -14 6 -6 3 7 2 16 -1 19 -3 4 -6 -2 -5 -13z"/>
<path d="M6380 4740 c0 -5 -7 -10 -15 -10 -18 0 -38 -37 -31 -56 3 -8 0 -14
-5 -14 -7 0 -9 -9 -5 -22 9 -28 26 -192 29 -268 2 -47 -7 -138 -28 -270 -3
-19 -9 -37 -14 -40 -4 -3 -11 -18 -15 -35 -8 -34 -61 -142 -81 -165 -7 -8 -16
-25 -19 -36 -7 -24 -270 -294 -286 -294 -5 0 -10 -5 -10 -11 0 -5 -6 -7 -12
-3 -9 5 -9 2 1 -9 12 -15 10 -17 -15 -18 -16 0 -23 -3 -16 -6 6 -2 12 -9 12
-14 0 -6 -5 -7 -11 -3 -13 7 -2 -57 11 -66 4 -3 10 -31 13 -63 3 -32 10 -64
16 -71 6 -7 8 -15 5 -18 -3 -3 -1 -23 5 -44 5 -22 13 -59 16 -84 4 -25 10 -63
14 -85 4 -22 6 -76 5 -120 -4 -179 -7 -240 -12 -250 -4 -5 -7 -23 -8 -40 -1
-16 -5 -50 -9 -75 -3 -25 -8 -83 -11 -130 -3 -47 -9 -105 -15 -129 -5 -24 -7
-46 -5 -49 3 -3 1 -11 -4 -18 -6 -6 -10 -16 -9 -20 2 -10 -8 -40 -22 -66 -5
-10 -9 -26 -9 -35 0 -19 -26 -99 -38 -117 -4 -6 -7 -27 -8 -47 0 -19 -3 -40
-6 -45 -12 -24 -7 -63 10 -67 13 -4 12 -5 -5 -6 -16 -1 -20 -6 -16 -21 3 -11
1 -20 -5 -20 -10 0 4 -47 25 -86 7 -12 10 -24 6 -27 -6 -6 14 -56 43 -109 8
-14 19 -50 24 -80 14 -71 80 -292 105 -353 7 -16 16 -43 21 -60 4 -16 9 -34
10 -40 12 -36 37 -149 44 -195 4 -30 15 -82 24 -115 9 -33 16 -84 15 -112 -2
-37 2 -58 14 -71 9 -10 18 -32 19 -48 1 -16 6 -32 11 -35 5 -4 4 -16 -2 -28
-8 -14 -8 -21 -1 -21 5 0 10 -15 10 -34 0 -19 3 -37 8 -39 4 -3 8 -45 10 -94
2 -49 11 -121 20 -159 l17 -69 1903 -3 1902 -2 0 2154 0 2153 -24 -4 c-13 -3
-27 0 -30 6 -11 17 -26 13 -26 -7 0 -22 -39 -46 -66 -40 -16 3 -13 7 14 23 17
11 32 25 32 32 0 7 5 13 10 13 6 0 10 5 10 10 0 6 -9 10 -20 10 -11 0 -23 7
-26 15 -4 8 -12 15 -20 15 -8 0 -14 5 -14 10 0 6 -6 10 -13 10 -16 0 -40 -38
-32 -50 4 -6 -3 -10 -14 -10 -15 0 -19 5 -15 18 5 13 4 14 -4 3 -11 -15 -82
-7 -82 9 0 6 -15 10 -32 10 l-33 -1 25 -19 c14 -11 30 -24 36 -29 6 -5 20 -11
30 -14 10 -2 -1 -4 -26 -4 -25 0 -50 5 -57 10 -7 5 -19 4 -30 -2 -16 -9 -15
-10 10 -11 15 0 27 -5 27 -10 0 -16 -30 -24 -43 -11 -14 14 -47 15 -47 1 0 -5
11 -10 25 -10 18 0 23 -4 19 -15 -7 -18 26 -21 44 -3 6 6 15 8 19 4 4 -4 0
-12 -10 -17 -24 -14 -22 -49 3 -49 21 0 27 -14 11 -25 -5 -3 -16 2 -24 10 -9
8 -22 15 -30 15 -8 0 -20 6 -26 14 -14 16 -59 27 -66 15 -3 -4 8 -10 25 -14
35 -8 40 -25 7 -25 -17 0 -23 -6 -25 -25 l-2 -25 21 21 c27 27 43 20 50 -24 6
-36 19 -63 19 -39 0 7 16 12 39 12 23 0 41 5 44 13 2 6 3 0 1 -15 -2 -16 1
-28 6 -28 6 0 10 -5 10 -10 0 -6 -8 -10 -17 -8 -14 2 -18 -4 -18 -32 -1 -42
11 -60 36 -60 22 0 23 -4 9 -31 -10 -17 -7 -20 20 -25 16 -4 30 -10 30 -15 0
-12 -12 -11 -51 5 l-34 14 -1 -36 c-1 -21 1 -29 3 -19 4 14 11 17 26 13 12 -3
30 -6 40 -6 34 0 16 -18 -25 -26 -39 -6 -41 -8 -17 -14 48 -13 67 -29 62 -49
-3 -14 2 -20 23 -25 22 -6 25 -9 14 -16 -19 -12 -19 -43 0 -52 12 -5 12 -7 -2
-7 -22 -1 -24 -17 -3 -25 22 -8 18 -34 -6 -41 l-20 -7 20 -17 c27 -24 15 -34
-15 -14 -22 14 -24 14 -24 -1 0 -9 7 -16 16 -16 11 0 15 -6 11 -20 -3 -13 2
-25 15 -34 22 -16 10 -30 -12 -15 -23 14 -28 11 -45 -21 -9 -16 -22 -30 -29
-30 -8 0 -17 -6 -20 -12 -3 -7 -3 1 1 17 l6 30 -20 -20 c-12 -12 -17 -24 -12
-31 12 -15 -10 -34 -38 -34 -22 0 -29 17 -24 58 1 6 -3 12 -9 12 -6 0 -8 -4
-5 -10 3 -5 2 -10 -4 -10 -5 0 -3 -13 5 -30 9 -17 23 -30 34 -30 10 0 22 -4
25 -10 3 -5 -3 -10 -13 -10 -15 0 -19 -5 -15 -20 4 -15 0 -20 -15 -20 -11 0
-22 -6 -25 -12 -2 -8 -8 -9 -13 -4 -5 5 -4 11 4 13 6 3 12 11 12 19 0 8 -6 14
-12 14 -10 0 -10 2 0 9 12 7 12 12 1 30 -16 24 -39 28 -39 6 0 -12 -10 -13
-47 -9 -45 5 -47 4 -29 -10 11 -9 24 -16 29 -16 5 0 4 -6 -2 -14 -6 -7 -9 -21
-5 -30 4 -11 0 -16 -14 -16 -11 0 -23 -6 -26 -12 -3 -9 -8 -8 -16 5 -7 10 -21
17 -33 16 -12 -2 -33 4 -47 14 -28 18 -70 13 -70 -9 0 -8 -4 -14 -10 -14 -5 0
-10 -4 -10 -10 0 -5 7 -10 17 -10 9 0 14 -3 10 -6 -23 -23 -80 43 -58 69 9 11
8 17 -4 27 -8 7 -15 8 -15 3 0 -5 -14 -8 -30 -5 -24 3 -29 1 -24 -11 3 -9 1
-24 -5 -34 -9 -15 -10 -13 -5 10 5 21 3 27 -11 27 -24 0 -13 23 16 31 20 5 21
7 7 14 -9 4 -22 4 -28 0 -16 -10 -12 12 6 29 14 15 12 16 -21 16 -22 0 -34 -4
-30 -10 10 -17 -5 -11 -27 10 -24 22 -53 26 -63 10 -4 -6 -12 -10 -18 -9 -7 1
-39 0 -72 -1 l-60 -3 45 -6 c56 -7 65 -33 25 -67 -24 -21 -34 -22 -94 -18 -36
3 -74 7 -83 9 -10 2 -18 -2 -18 -8 0 -6 -7 -19 -17 -29 -19 -22 -10 -36 12
-18 9 7 18 10 22 6 11 -10 -3 -17 -41 -20 -34 -3 -64 -16 -37 -16 7 0 10 -4 7
-9 -3 -5 -15 -7 -26 -4 -11 3 -17 9 -14 14 3 5 -13 9 -35 9 -22 0 -41 -5 -44
-12 -4 -10 -7 -10 -18 0 -7 6 -26 12 -41 12 -15 0 -28 5 -28 10 0 6 -5 10 -12
10 -9 0 -9 -3 -1 -11 13 -13 -6 -39 -26 -39 -6 0 -11 -9 -11 -21 0 -12 -4 -17
-11 -14 -6 4 -8 14 -5 22 4 11 2 13 -9 9 -8 -3 -37 -8 -65 -12 -27 -4 -50 -10
-50 -15 0 -5 -7 -9 -16 -9 -13 0 -11 5 7 25 13 13 29 25 35 25 15 0 39 29 30
37 -3 4 -12 1 -18 -5 -7 -7 -22 -12 -35 -12 -13 0 -23 -5 -23 -10 0 -6 -11
-22 -25 -36 -22 -21 -28 -24 -41 -13 -15 12 -15 24 0 59 5 12 -3 19 -29 29
-35 12 -49 41 -20 41 8 0 15 5 15 10 0 6 -13 10 -29 10 -31 0 -49 14 -31 25
19 12 10 23 -25 29 -32 6 -34 9 -22 27 10 17 9 23 -9 37 -20 17 -24 24 -24 41
0 5 -9 11 -20 14 -11 3 -20 12 -20 21 0 10 -9 16 -24 16 -13 0 -30 7 -37 16
-11 14 -11 18 4 29 22 16 21 21 -5 29 -18 4 -20 8 -10 18 19 19 14 28 -14 28
-19 0 -25 4 -20 15 4 10 -3 19 -19 25 -16 6 -23 15 -19 25 3 8 11 15 16 15 6
0 8 -7 4 -15 -3 -8 -1 -15 5 -15 18 0 21 28 4 54 -10 14 -24 26 -32 26 -8 0
-11 5 -8 10 4 6 11 8 16 5 5 -4 9 -1 9 4 0 6 -9 11 -19 11 -13 0 -21 9 -26 30
-7 31 -19 39 -29 18 -3 -7 -3 -3 -1 9 3 12 1 24 -4 27 -6 4 -7 14 -4 22 4 10
-2 17 -16 21 -11 3 -21 11 -21 19 0 7 -11 16 -25 20 -16 4 -25 13 -25 25 0 10
-4 19 -10 19 -5 0 -10 -4 -10 -10 0 -15 -38 -51 -44 -41 -9 14 6 51 20 51 8 0
14 4 14 9 0 15 -59 53 -70 46 -16 -10 9 -37 27 -31 9 4 8 -2 -4 -19 -22 -29
-43 -40 -43 -21 0 8 6 17 13 20 10 5 10 7 0 12 -7 3 -13 10 -13 16 0 13 -26
38 -39 38 -6 0 -11 -4 -11 -10 0 -5 7 -10 15 -10 18 0 20 -16 3 -23 -10 -4 -9
-8 2 -16 13 -9 12 -11 -3 -11 -10 0 -27 5 -38 11 -20 10 -20 11 -2 24 17 13
16 14 -9 15 -24 0 -28 4 -28 30 0 17 -4 30 -10 30 -5 0 -10 -11 -10 -25 0 -14
-4 -25 -10 -25 -5 0 -10 11 -10 25 0 14 -5 25 -11 25 -5 0 -9 -8 -8 -17 3 -30
-1 -43 -11 -43 -10 0 -8 34 5 83 6 22 4 27 -11 27 -13 0 -15 -3 -7 -8 13 -8 6
-52 -8 -52 -5 0 -9 -7 -9 -15 0 -27 -16 -16 -29 20 -7 19 -19 35 -27 35 -8 0
-12 5 -9 10 3 6 18 8 33 5 21 -4 20 -2 -5 7 -37 12 -43 33 -12 41 l20 6 -20
20 c-12 12 -21 33 -21 47 0 19 -4 25 -15 20 -16 -6 -54 10 -67 28 -3 5 -4 16
0 24 3 9 1 13 -5 9 -17 -11 -45 4 -39 19 4 10 -4 14 -27 14 -19 0 -42 8 -55
20 -12 11 -24 20 -27 20 -4 0 -15 10 -24 22 -12 14 -29 21 -49 21 -27 0 -29 2
-15 12 9 7 25 10 36 7 15 -4 18 -2 12 8 -5 8 -20 10 -41 7 -19 -3 -36 -1 -39
4 -4 5 -15 9 -26 9 -22 0 -27 35 -6 43 12 5 -16 11 -40 8 -6 -1 -9 7 -6 18 9
36 -68 69 -81 35 -5 -12 -14 -15 -38 -10 -22 4 -37 1 -50 -10 -17 -16 -18 -16
-18 -1 0 10 -7 17 -15 17 -8 0 -15 -4 -15 -10 0 -14 -26 -12 -39 3 -8 10 -7
17 2 27 10 10 8 11 -8 5 -27 -12 -94 -14 -128 -4 -15 4 -25 4 -22 -1 3 -4 2
-16 -2 -26 -6 -15 -8 -14 -16 7 -6 13 -9 30 -8 37 1 6 -1 12 -4 12 -3 0 -5 -4
-5 -10z m-10 -30 c0 -5 -4 -10 -10 -10 -5 0 -10 5 -10 10 0 6 5 10 10 10 6 0
10 -4 10 -10z m750 -270 c0 -5 -2 -10 -4 -10 -3 0 -8 5 -11 10 -3 6 -1 10 4
10 6 0 11 -4 11 -10z m2738 -104 c-10 -7 -15 -15 -12 -18 3 -4 1 -9 -5 -13 -6
-3 -11 -2 -11 4 0 5 -3 16 -6 25 -5 12 0 16 22 16 26 -1 27 -2 12 -14z m-1
-262 c-3 -3 -12 -4 -19 -1 -8 3 -5 6 6 6 11 1 17 -2 13 -5z m-2337 -14 c0 -5
-2 -10 -4 -10 -3 0 -8 5 -11 10 -3 6 -1 10 4 10 6 0 11 -4 11 -10z m2215 -11
c10 -15 -1 -23 -20 -15 -9 3 -13 10 -10 16 8 13 22 13 30 -1z m-25 -55 c0 -2
-7 -4 -15 -4 -8 0 -15 4 -15 10 0 5 7 7 15 4 8 -4 15 -8 15 -10z m47 -20 c-3
-3 -12 -4 -19 -1 -8 3 -5 6 6 6 11 1 17 -2 13 -5z m-2080 -46 c-3 -8 -6 -5 -6
6 -1 11 2 17 5 13 3 -3 4 -12 1 -19z m47 -87 c4 -5 -3 -7 -14 -4 -23 6 -26 13
-6 13 8 0 17 -4 20 -9z m66 -125 c-24 -12 -40 -12 -40 2 0 4 15 8 33 9 l32 2
-25 -13z m2050 -246 c0 -5 -5 -10 -11 -10 -5 0 -7 5 -4 10 3 6 8 10 11 10 2 0
4 -4 4 -10z m-62 -43 c13 -4 12 -5 -4 -6 -22 -1 -39 21 -26 34 4 4 8 0 10 -8
2 -9 11 -18 20 -20z m19 17 c-3 -3 -12 -4 -19 -1 -8 3 -5 6 6 6 11 1 17 -2 13
-5z m-712 -54 c-3 -5 -10 -10 -16 -10 -5 0 -9 5 -9 10 0 6 7 10 16 10 8 0 12
-4 9 -10z m716 1 c-8 -5 -20 -7 -28 -4 -21 8 -15 13 15 13 20 0 23 -3 13 -9z
m-601 -51 c-16 -11 -40 -13 -40 -5 0 8 44 24 50 18 2 -2 -2 -8 -10 -13z m-390
-11 c0 -6 -4 -7 -10 -4 -5 3 -10 11 -10 16 0 6 5 7 10 4 6 -3 10 -11 10 -16z
m871 -2 c-13 -13 -26 -3 -16 12 3 6 11 8 17 5 6 -4 6 -10 -1 -17z m-570 -10
c-13 -13 -26 -3 -16 12 3 6 11 8 17 5 6 -4 6 -10 -1 -17z m539 -7 c0 -5 -4
-10 -10 -10 -5 0 -10 5 -10 10 0 6 5 10 10 10 6 0 10 -4 10 -10z m-755 -10
c-3 -5 -11 -10 -16 -10 -6 0 -7 5 -4 10 3 6 11 10 16 10 6 0 7 -4 4 -10z
m-768 -16 c-3 -3 -12 -4 -19 -1 -8 3 -5 6 6 6 11 1 17 -2 13 -5z m838 -4 c3
-6 -1 -7 -9 -4 -18 7 -21 14 -7 14 6 0 13 -4 16 -10z m-478 -6 c-3 -3 -12 -4
-19 -1 -8 3 -5 6 6 6 11 1 17 -2 13 -5z m266 -1 c-7 -2 -21 -2 -30 0 -10 3 -4
5 12 5 17 0 24 -2 18 -5z m-301 -38 c0 -5 -5 -11 -11 -13 -6 -2 -11 4 -11 13
0 9 5 15 11 13 6 -2 11 -8 11 -13z m168 5 c0 -5 -13 -10 -30 -10 -16 0 -30 5
-30 10 0 6 14 10 30 10 17 0 30 -4 30 -10z m-270 -20 c0 -5 -7 -7 -15 -4 -8 4
-15 8 -15 10 0 2 7 4 15 4 8 0 15 -4 15 -10z m250 -24 c0 -3 -4 -8 -10 -11 -5
-3 -10 -1 -10 4 0 6 5 11 10 11 6 0 10 -2 10 -4z"/>
<path d="M9434 4738 c3 -10 1 -18 -4 -18 -6 0 -10 -4 -10 -10 0 -12 27 -13 34
-1 3 4 -2 17 -10 27 -14 17 -15 17 -10 2z"/>
<path d="M6155 4732 c-5 -4 -16 -18 -24 -32 -13 -22 -13 -24 1 -12 13 10 17
10 20 0 3 -9 6 -9 12 0 4 7 2 12 -4 12 -8 0 -8 6 0 20 12 22 11 24 -5 12z"/>
<path d="M9482 4708 c2 -6 10 -14 16 -16 7 -2 10 2 6 12 -7 18 -28 22 -22 4z"/>
<path d="M9610 4700 c-8 -5 -11 -12 -7 -16 4 -4 13 -2 19 4 15 15 7 24 -12 12z"/>
<path d="M9890 4700 c0 -5 7 -10 15 -10 8 0 15 -6 15 -14 0 -11 -10 -13 -40
-9 -22 3 -40 2 -40 -3 0 -10 59 -38 74 -35 5 1 16 -1 24 -4 13 -5 12 -8 -4
-20 -11 -8 -14 -15 -6 -15 6 0 12 -9 12 -20 0 -17 4 -19 27 -14 l27 7 -22 -23
-22 -24 -17 23 c-14 22 -17 22 -26 6 -7 -14 -11 -15 -18 -4 -4 7 -11 10 -15 6
-9 -9 28 -37 39 -30 5 3 14 -3 22 -13 11 -15 15 -16 28 -5 14 11 16 9 13 -11
-1 -13 -10 -40 -19 -60 -9 -21 -17 -53 -17 -73 0 -32 2 -35 30 -35 l30 0 0
135 c0 113 -2 135 -15 135 -8 0 -15 5 -15 11 0 6 7 9 15 5 9 -3 15 0 15 10 0
11 -6 15 -19 11 -12 -3 -22 1 -25 9 -4 11 1 13 19 8 23 -6 25 -3 25 30 l0 36
-55 0 c-30 0 -55 -4 -55 -10z m90 -20 c0 -5 -9 -10 -20 -10 -11 0 -20 5 -20
10 0 6 9 10 20 10 11 0 20 -4 20 -10z m7 -287 c-2 -5 -7 -17 -11 -28 -6 -16
-9 -17 -16 -5 -16 24 -11 40 11 40 11 0 18 -3 16 -7z"/>
<path d="M9740 4691 c0 -6 5 -13 10 -16 6 -3 10 1 10 9 0 9 -4 16 -10 16 -5 0
-10 -4 -10 -9z"/>
<path d="M9400 4670 c0 -5 5 -10 10 -10 6 0 10 5 10 10 0 6 -4 10 -10 10 -5 0
-10 -4 -10 -10z"/>
<path d="M9855 4630 c3 -5 8 -10 11 -10 2 0 4 5 4 10 0 6 -5 10 -11 10 -5 0
-7 -4 -4 -10z"/>
<path d="M6910 4620 c0 -5 7 -10 16 -10 8 0 12 5 9 10 -3 6 -10 10 -16 10 -5
0 -9 -4 -9 -10z"/>
<path d="M9440 4620 c0 -5 5 -10 10 -10 6 0 10 5 10 10 0 6 -4 10 -10 10 -5 0
-10 -4 -10 -10z"/>
<path d="M9360 4604 c0 -8 5 -12 10 -9 6 3 10 10 10 16 0 5 -4 9 -10 9 -5 0
-10 -7 -10 -16z"/>
<path d="M9710 4600 c0 -5 5 -10 10 -10 6 0 10 5 10 10 0 6 -4 10 -10 10 -5 0
-10 -4 -10 -10z"/>
<path d="M9853 4585 c0 -14 5 -25 12 -25 8 0 10 9 7 25 -2 14 -8 25 -12 25 -4
0 -7 -11 -7 -25z"/>
<path d="M5860 4594 c0 -13 18 -39 24 -34 2 3 -2 14 -10 24 -8 11 -14 16 -14
10z"/>
<path d="M9810 4577 c0 -8 -10 -22 -22 -31 l-23 -16 25 3 c14 1 24 8 23 15 -2
6 4 12 13 12 9 0 14 5 12 12 -6 18 -28 22 -28 5z"/>
<path d="M9538 4573 c6 -2 18 -2 25 0 6 3 1 5 -13 5 -14 0 -19 -2 -12 -5z"/>
<path d="M9748 4573 c6 -2 18 -2 25 0 6 3 1 5 -13 5 -14 0 -19 -2 -12 -5z"/>
<path d="M9460 4550 c0 -5 5 -10 10 -10 6 0 10 5 10 10 0 6 -4 10 -10 10 -5 0
-10 -4 -10 -10z"/>
<path d="M9550 4550 c0 -5 -9 -10 -19 -10 -23 0 -36 -16 -21 -25 6 -4 20 1 30
10 16 14 24 15 51 6 40 -14 52 -14 44 -1 -3 6 -17 10 -31 10 -13 0 -24 5 -24
10 0 6 -7 10 -15 10 -8 0 -15 -4 -15 -10z"/>
<path d="M7075 4500 c3 -5 15 -10 26 -10 10 0 19 5 19 10 0 6 -12 10 -26 10
-14 0 -23 -4 -19 -10z"/>
<path d="M9325 4499 c-10 -15 3 -25 16 -12 7 7 7 13 1 17 -6 3 -14 1 -17 -5z"/>
<path d="M9376 4503 c-11 -11 -6 -23 9 -23 8 0 15 4 15 9 0 13 -16 22 -24 14z"/>
<path d="M9815 4500 c3 -5 17 -10 31 -10 13 0 24 5 24 10 0 6 -14 10 -31 10
-17 0 -28 -4 -24 -10z"/>
<path d="M8625 4490 c-4 -6 3 -10 14 -10 25 0 27 6 6 13 -8 4 -17 2 -20 -3z"/>
<path d="M9677 4493 c-2 -5 0 -21 3 -38 6 -25 8 -27 15 -12 4 10 2 23 -4 31
-10 11 -8 15 6 19 16 4 16 5 1 6 -9 0 -19 -2 -21 -6z"/>
<path d="M5930 4481 c0 -6 4 -13 10 -16 6 -3 7 1 4 9 -7 18 -14 21 -14 7z"/>
<path d="M9556 4483 c-12 -12 -5 -23 14 -23 11 0 20 4 20 9 0 11 -26 22 -34
14z"/>
<path d="M9738 4483 c7 -3 16 -2 19 1 4 3 -2 6 -13 5 -11 0 -14 -3 -6 -6z"/>
<path d="M9899 4481 c18 -11 5 -31 -20 -31 -22 0 -23 -4 -9 -31 12 -22 40 -26
40 -6 0 8 9 24 20 37 23 27 22 29 -16 36 -20 3 -25 1 -15 -5z"/>
<path d="M9790 4470 c20 -13 40 -13 40 0 0 6 -12 10 -27 10 -22 0 -25 -2 -13
-10z"/>
<path d="M9730 4450 c0 -13 5 -18 15 -14 8 4 15 12 15 20 0 8 -7 14 -15 14 -8
0 -15 -9 -15 -20z"/>
<path d="M9305 4451 c-3 -5 3 -12 14 -16 10 -3 22 -16 26 -28 l8 -22 4 23 c3
13 2 30 -1 38 -6 16 -42 19 -51 5z"/>
<path d="M9376 4452 c-3 -6 -2 -21 3 -33 l8 -24 8 24 c7 24 -8 51 -19 33z"/>
<path d="M9510 4443 c0 -3 8 -15 18 -26 17 -20 16 -20 -13 -13 -29 6 -29 6
-10 -10 14 -11 16 -18 8 -21 -29 -11 -9 -23 37 -23 28 0 50 5 50 10 0 6 -4 10
-10 10 -18 0 -10 21 11 28 19 7 19 9 5 21 -14 11 -16 11 -16 -3 0 -9 -4 -16
-10 -16 -5 0 -10 -6 -10 -14 0 -21 -20 -30 -33 -16 -9 9 -8 14 6 24 22 17 22
33 -2 46 -23 12 -31 13 -31 3z"/>
<path d="M5988 4433 c7 -3 16 -2 19 1 4 3 -2 6 -13 5 -11 0 -14 -3 -6 -6z"/>
<path d="M9787 4434 c-10 -11 3 -24 24 -24 10 0 19 7 19 15 0 15 -31 21 -43 9z"/>
<path d="M8690 4419 c0 -5 5 -7 10 -4 6 3 10 8 10 11 0 2 -4 4 -10 4 -5 0 -10
-5 -10 -11z"/>
<path d="M9440 4410 c0 -5 5 -10 11 -10 5 0 7 5 4 10 -3 6 -8 10 -11 10 -2 0
-4 -4 -4 -10z"/>
<path d="M9715 4410 c-9 -15 3 -30 24 -30 27 0 33 11 13 26 -21 16 -29 17 -37
4z"/>
<path d="M8737 4393 c-4 -3 -7 -11 -7 -17 0 -6 5 -5 12 2 6 6 9 14 7 17 -3 3
-9 2 -12 -2z"/>
<path d="M9425 4380 c-3 -5 3 -10 15 -10 12 0 18 5 15 10 -3 6 -10 10 -15 10
-5 0 -12 -4 -15 -10z"/>
<path d="M9890 4386 c0 -2 7 -6 15 -10 8 -3 15 -1 15 4 0 6 -7 10 -15 10 -8 0
-15 -2 -15 -4z"/>
<path d="M6002 4371 c-11 -6 -9 -9 6 -13 15 -4 19 -2 15 8 -6 16 -4 16 -21 5z"/>
<path d="M8740 4346 c0 -6 11 -11 25 -11 14 0 25 3 25 6 0 4 -11 9 -25 11 -15
3 -25 1 -25 -6z"/>
<path d="M9352 4351 c4 -13 18 -16 19 -4 0 4 -5 9 -11 12 -7 2 -11 -2 -8 -8z"/>
<path d="M9405 4330 c-3 -5 -1 -10 4 -10 6 0 11 5 11 10 0 6 -2 10 -4 10 -3 0
-8 -4 -11 -10z"/>
<path d="M9525 4320 c-8 -13 5 -13 25 0 13 8 13 10 -2 10 -9 0 -20 -4 -23 -10z"/>
<path d="M6020 4290 c0 -6 7 -10 15 -10 8 0 15 2 15 4 0 2 -7 6 -15 10 -8 3
-15 1 -15 -4z"/>
<path d="M6080 4289 c0 -5 5 -7 10 -4 6 3 10 8 10 11 0 2 -4 4 -10 4 -5 0 -10
-5 -10 -11z"/>
<path d="M9335 4280 c-3 -5 1 -10 9 -10 9 0 16 5 16 10 0 6 -4 10 -9 10 -6 0
-13 -4 -16 -10z"/>
<path d="M9498 4253 c6 -2 18 -2 25 0 6 3 1 5 -13 5 -14 0 -19 -2 -12 -5z"/>
<path d="M7427 4230 c3 -11 7 -20 8 -20 1 0 5 9 8 20 3 12 0 20 -8 20 -8 0
-11 -8 -8 -20z"/>
<path d="M7310 4200 c0 -5 5 -10 10 -10 6 0 10 5 10 10 0 6 -4 10 -10 10 -5 0
-10 -4 -10 -10z"/>
<path d="M9230 4200 c0 -5 5 -10 10 -10 6 0 10 5 10 10 0 6 -4 10 -10 10 -5 0
-10 -4 -10 -10z"/>
<path d="M6060 4172 c0 -5 7 -13 16 -16 10 -4 14 -1 12 6 -5 15 -28 23 -28 10z"/>
<path d="M7440 4165 c0 -9 5 -15 11 -13 6 2 11 8 11 13 0 5 -5 11 -11 13 -6 2
-11 -4 -11 -13z"/>
<path d="M7532 4154 c9 -9 21 -13 27 -10 20 13 11 26 -16 26 -25 0 -26 -1 -11
-16z"/>
<path d="M9543 4120 c6 -22 13 -38 15 -36 6 7 -10 76 -18 76 -4 0 -2 -18 3
-40z"/>
<path d="M6121 4134 c0 -11 3 -14 6 -6 3 7 2 16 -1 19 -3 4 -6 -2 -5 -13z"/>
<path d="M6118 4092 c-22 -4 -23 -18 -4 -25 8 -3 17 1 20 10 8 19 6 20 -16 15z"/>
<path d="M9440 4070 c0 -5 5 -10 10 -10 6 0 10 5 10 10 0 6 -4 10 -10 10 -5 0
-10 -4 -10 -10z"/>
<path d="M9600 4066 c0 -15 24 -28 34 -19 13 14 5 33 -14 33 -11 0 -20 -6 -20
-14z"/>
<path d="M7770 4000 c-18 -12 -2 -12 25 0 13 6 15 9 5 9 -8 0 -22 -4 -30 -9z"/>
<path d="M9620 3989 c0 -9 7 -22 15 -29 19 -16 19 0 0 26 -12 16 -14 16 -15 3z"/>
<path d="M6001 3966 c-9 -11 -8 -15 5 -20 22 -9 23 -8 21 14 -2 23 -10 25 -26
6z"/>
<path d="M7760 3960 c0 -5 5 -10 10 -10 6 0 10 5 10 10 0 6 -4 10 -10 10 -5 0
-10 -4 -10 -10z"/>
<path d="M6005 3920 c3 -5 13 -10 21 -10 8 0 12 5 9 10 -3 6 -13 10 -21 10 -8
0 -12 -4 -9 -10z"/>
<path d="M6052 3894 c-7 -8 -17 -12 -23 -9 -5 4 -9 -1 -9 -9 0 -23 27 -20 40
5 14 25 10 32 -8 13z"/>
<path d="M6091 3866 c-10 -12 -8 -13 8 -9 12 3 18 9 15 14 -7 12 -10 11 -23
-5z"/>
<path d="M6047 3800 c-3 -11 -1 -20 4 -20 5 0 9 9 9 20 0 11 -2 20 -4 20 -2 0
-6 -9 -9 -20z"/>
<path d="M7875 3740 c-3 -5 1 -10 9 -10 9 0 16 5 16 10 0 6 -4 10 -9 10 -6 0
-13 -4 -16 -10z"/>
<path d="M5960 3665 c-11 -13 -10 -14 4 -9 9 3 16 10 16 15 0 13 -6 11 -20 -6z"/>
<path d="M7925 3610 c-3 -5 3 -10 15 -10 12 0 18 5 15 10 -3 6 -10 10 -15 10
-5 0 -12 -4 -15 -10z"/>
<path d="M9700 3539 c0 -5 5 -7 10 -4 6 3 10 8 10 11 0 2 -4 4 -10 4 -5 0 -10
-5 -10 -11z"/>
<path d="M9010 3523 c-14 -7 -18 -13 -10 -13 17 0 47 17 40 23 -3 2 -16 -2
-30 -10z"/>
<path d="M9088 3503 c7 -3 16 -2 19 1 4 3 -2 6 -13 5 -11 0 -14 -3 -6 -6z"/>
<path d="M8935 3490 c-3 -5 1 -10 9 -10 8 0 18 5 21 10 3 6 -1 10 -9 10 -8 0
-18 -4 -21 -10z"/>
<path d="M8860 3486 c0 -2 7 -7 16 -10 8 -3 12 -2 9 4 -6 10 -25 14 -25 6z"/>
<path d="M9040 3476 c0 -6 15 -11 33 -10 92 3 110 4 105 10 -12 11 -138 11
-138 0z"/>
<path d="M9555 3480 c-8 -13 5 -13 25 0 13 8 13 10 -2 10 -9 0 -20 -4 -23 -10z"/>
<path d="M9507 3430 c-13 -13 -15 -20 -7 -25 13 -8 30 11 30 33 0 15 -1 15
-23 -8z"/>
<path d="M8880 3411 c0 -12 5 -21 10 -21 6 0 10 6 10 14 0 8 -4 18 -10 21 -5
3 -10 -3 -10 -14z"/>
<path d="M8235 3360 c-3 -5 1 -10 10 -10 9 0 13 5 10 10 -3 6 -8 10 -10 10 -2
0 -7 -4 -10 -10z"/>
<path d="M9255 3360 c-3 -5 -1 -10 4 -10 6 0 11 5 11 10 0 6 -2 10 -4 10 -3 0
-8 -4 -11 -10z"/>
<path d="M8668 3353 c7 -3 16 -2 19 1 4 3 -2 6 -13 5 -11 0 -14 -3 -6 -6z"/>
<path d="M8175 3340 c-3 -6 5 -14 18 -19 41 -16 60 -17 65 -2 3 9 -1 11 -15 7
-12 -4 -25 0 -33 9 -14 17 -26 19 -35 5z"/>
<path d="M8545 3339 c-10 -14 -1 -21 19 -13 9 3 13 10 10 15 -7 12 -21 11 -29
-2z"/>
<path d="M8460 3330 c0 -5 5 -10 10 -10 6 0 10 5 10 10 0 6 -4 10 -10 10 -5 0
-10 -4 -10 -10z"/>
<path d="M8624 3325 c-19 -14 -18 -14 4 -15 13 0 22 6 22 15 0 19 -1 19 -26 0z"/>
<path d="M9230 3315 c0 -8 5 -15 10 -15 6 0 10 7 10 15 0 8 -4 15 -10 15 -5 0
-10 -7 -10 -15z"/>
<path d="M8190 3275 c-7 -9 -10 -18 -7 -22 8 -7 37 15 37 28 0 14 -16 11 -30
-6z"/>
<path d="M8368 3283 c6 -2 18 -2 25 0 6 3 1 5 -13 5 -14 0 -19 -2 -12 -5z"/>
<path d="M5398 2673 c6 -2 18 -2 25 0 6 3 1 5 -13 5 -14 0 -19 -2 -12 -5z"/>
<path d="M5558 1473 c7 -3 16 -2 19 1 4 3 -2 6 -13 5 -11 0 -14 -3 -6 -6z"/>
<path d="M5550 1436 c0 -22 13 -26 46 -17 l29 8 -28 12 c-37 15 -47 14 -47 -3z"/>
<path d="M5595 1370 c3 -5 10 -10 16 -10 5 0 9 5 9 10 0 6 -7 10 -16 10 -8 0
-12 -4 -9 -10z"/>
<path d="M5747 594 c7 -3 9 -12 6 -20 -4 -10 0 -12 11 -8 22 8 15 28 -10 31
-10 2 -14 0 -7 -3z"/>
<path d="M5940 270 c0 -6 5 -10 11 -10 5 0 8 -4 5 -9 -3 -5 0 -14 8 -20 11 -9
12 -6 9 13 -5 24 -33 46 -33 26z"/>
<path d="M5120 144 c0 -14 3 -14 15 -4 8 7 15 14 15 16 0 2 -7 4 -15 4 -8 0
-15 -7 -15 -16z"/>
</g>
</svg>
